<?xml version="1.0" encoding="UTF-8"?>
<svg id="OBJECTS" xmlns="http://www.w3.org/2000/svg" viewBox="0 0 176.22 67.07">
  <defs>
    <style>
      .cls-1 {
        fill: #816cae;
      }

      .cls-2 {
        fill: #ab70ad;
      }

      .cls-3 {
        fill: #5d56a1;
      }
    </style>
  </defs>
  <g>
    <path class="cls-3" d="m164.75,46.64c0,6.58-9.28,11.91-20.72,11.91H32.18c-11.44,0-20.71-5.33-20.71-11.91v-26.21c0-6.58,9.27-11.91,20.71-11.91h111.86c11.44,0,20.72,5.33,20.72,11.91v26.21Z"/>
    <path class="cls-1" d="m144.04,8.51H32.18c-11.44,0-20.71,4.02-20.71,8.99v9.59c0,4.96,9.27,8.99,20.71,8.99h111.86c11.44,0,20.72-4.02,20.72-8.99v-9.59c0-4.96-9.28-8.99-20.72-8.99Z"/>
  </g>
  <path class="cls-2" d="m62.61,30.12c0,.99-1.85,1.8-4.14,1.8h-14.84c-2.29,0-4.14-.8-4.14-1.8h0c0-.99,1.86-1.8,4.14-1.8h14.84c2.29,0,4.14.81,4.14,1.8h0Z"/>
  <path class="cls-2" d="m69.46,20.5c0,.84-1.28,1.51-2.87,1.51h-10.28c-1.58,0-2.87-.68-2.87-1.51h0c0-.84,1.29-1.51,2.87-1.51h10.28c1.59,0,2.87.68,2.87,1.51h0Z"/>
  <path class="cls-3" d="m127.63,22.3c0,.99-1.86,1.8-4.14,1.8h-14.84c-2.29,0-4.14-.8-4.14-1.8h0c0-.99,1.85-1.8,4.14-1.8h14.84c2.29,0,4.14.8,4.14,1.8h0Z"/>
</svg>