<?xml version="1.0" encoding="UTF-8"?>
<svg id="OBJECTS" xmlns="http://www.w3.org/2000/svg" viewBox="0 0 176.22 67.07">
  <defs>
    <style>
      .cls-1 {
        fill: #816cae;
      }

      .cls-2 {
        fill: #ab70ad;
      }

      .cls-3 {
        fill: #2297b2;
      }

      .cls-4 {
        fill: #5d56a1;
      }
    </style>
  </defs>
  <g>
    <path class="cls-4" d="m65.23,12.76c.12-.14.23-.3.35-.44-.48-.14-.96-.29-1.42-.48.08,1,.15,1.99,1.07.92Z"/>
    <path class="cls-4" d="m156.22,5.13L87.99,0c-1.28,3.03-3.17,5.89-5.63,8.14,5.63,2.56,12.98,1.62,18.31,4.8-2.99-.23-4.29,3.69-7.36,4.46,4.99.38,8.9,1.67,12.81,2.97-1.99-.15-2.22,2.84-3.29,3.76,6.98.53,13.66,5.04,20.57,6.56-2.22,2.84-5.36,4.61-5.66,8.6,3.22-2.77,6.91,1.52,9.82,2.74-5.69,3.63-11.35,6.81-17.31,9.82l42.21,3.18c11.41.86,21.06-3.77,21.55-10.33l1.97-26.14c.49-6.56-8.36-12.58-19.76-13.43Z"/>
    <path class="cls-4" d="m17.17,51.95c-.78,3.04-.09,6.92-.66,10.32,3.65,2.5,8.9,4.23,14.83,4.55l4.66.25c-1.08-2.58-3.38-4.59-3.24-7.28-5.32,5.72-10.72-5.58-15.6-7.85Z"/>
    <path class="cls-4" d="m115.4,38.98c-3.07-.77-7.36-4.45-10.12-1.22-.31-3.99,2.53-6.21,4.29-9.36-7.06-.46-14.34-3.91-21.32-3.37.92-1.07.69-4.07,2.68-4.22-4.07-.69-8.13-1.38-13.12-.99,2.91-1.23,3.6-5.29,6.59-5.52-5.75-2.34-12.87-.29-18.83-1.97-.12.15-.23.3-.35.44-.92,1.07-1,.08-1.07-.92.46.19.94.34,1.42.48,2.09-2.59,3.52-5.71,4.33-8.9l-30.58,2.36c1.02,2.2,2.31,4.24,4.73,5.6-8.13-1.38-15.88,2.23-22.62,5.76,2.07.84,3.22,2.76,4.37,4.68-7.39-3.01-12.46,3.37-18.47,4.47l1.55,20.09c.24,3.15,2.62,5.85,6.27,7.71.12-3.45-1.07-7.2-.69-10.32,5.14,1.61,11.97,12.11,16.49,5.75.21,2.68,2.75,4.37,4.16,6.79l64.66-4.99c5.43-3.88,10.55-7.87,15.62-12.33Z"/>
    <path class="cls-1" d="m19.18,18.68c-1.15-1.92-2.3-3.83-4.37-4.68,6.75-3.53,14.49-7.14,22.62-5.76-2.42-1.36-3.71-3.4-4.73-5.6l-12.72.98C8.57,4.5-.37,9.23.01,14.17l.69,8.97c6.02-1.09,11.08-7.47,18.47-4.47Z"/>
    <path class="cls-1" d="m65.23,12.76c.12-.14.23-.3.35-.44-.48-.14-.96-.29-1.42-.48.08,1,.15,1.99,1.07.92Z"/>
    <path class="cls-1" d="m156.22,5.13L87.99,0c-1.28,3.03-3.17,5.89-5.63,8.14,5.63,2.56,12.98,1.62,18.31,4.8-2.99-.23-4.29,3.69-7.36,4.46,4.99.38,8.9,1.67,12.81,2.97-1.99-.15-2.22,2.84-3.29,3.76,6.28.47,12.33,4.17,18.51,6.02l32.81,2.47c11.41.86,20.96-2.46,21.33-7.41l.72-9.56c.37-4.95-8.58-9.66-19.98-10.52Z"/>
    <path class="cls-1" d="m90.93,20.81c-4.07-.69-8.13-1.38-13.12-.99,2.91-1.23,3.6-5.29,6.59-5.52-5.75-2.34-12.87-.29-18.83-1.97-.12.15-.23.3-.35.44-.92,1.07-1,.08-1.07-.92.46.19.94.34,1.42.48,2.09-2.59,3.52-5.71,4.33-8.9l-30.58,2.36c1.02,2.2,2.31,4.24,4.73,5.6-8.13-1.38-15.88,2.23-22.62,5.76,2.07.84,3.22,2.76,4.37,4.68-7.39-3.01-12.46,3.37-18.47,4.47l.05.59c.38,4.95,9.94,8.25,21.34,7.37l78.72-6.08c-6.39-.89-12.92-3.63-19.21-3.14.92-1.07.69-4.07,2.68-4.22Z"/>
  </g>
  <path class="cls-3" d="m65.23,12.76c.12-.14.23-.3.35-.44-.48-.14-.96-.29-1.42-.48.08,1,.15,1.99,1.07.92Z"/>
  <path class="cls-3" d="m102.64,12.79c.2-1.08-1.93-2.37-4.73-2.88l-14.66-2.65c-.52.63-1.07,1.22-1.66,1.78,5.69,2.44,13.02,1.32,18.41,4.38-.74-.04-1.37.17-1.94.53,2.43.28,4.4-.19,4.58-1.16Z"/>
  <path class="cls-3" d="m65.58,12.32c-.12.15-.23.3-.35.44-.92,1.07-1,.08-1.07-.92.46.19.94.34,1.42.48.51-.63.99-1.29,1.42-1.98l-3.62-.18c-2.85-.14-5.21.63-5.26,1.73-.05,1.1,2.21,2.1,5.07,2.24l18.5.91c.3.01.59.01.87,0,.53-.42,1.12-.72,1.86-.77-5.75-2.34-12.87-.29-18.83-1.97Z"/>
  <path class="cls-3" d="m109.2,21.21c.09-.51-1.39-1.21-3.32-1.56l-11.91-2.15c-.38.23-.77.42-1.22.54,4.99.26,8.94,1.47,12.88,2.68-.58-.03-1,.2-1.33.56l1.24.22c1.92.35,3.56.21,3.65-.3Z"/>
  <path class="cls-3" d="m90.93,20.81c-4.07-.69-8.13-1.38-13.12-.99.42-.18.79-.42,1.14-.7l-.59-.03c-1.95-.1-3.56.25-3.58.77-.03.52,1.54,1.02,3.49,1.12l11.41.56c.29-.4.67-.69,1.25-.73Z"/>
  <path class="cls-3" d="m84.41,14.29c-.68-.27-1.37-.48-2.08-.65-.72.47-1.52,1-2.35,1.57-3.07,2.13-5.43,4.03-5.28,4.26l1.02,1.47c.09.13,1-.33,2.34-1.14-.08,0-.16,0-.24.01,2.91-1.23,3.6-5.29,6.59-5.52Z"/>
  <path class="cls-3" d="m102.55,12.7l-.82-1.59c-.09-.18-1.61.41-3.71,1.4.68.26,1.35.55,1.98.91-3-.16-4.2,3.79-7.25,4.63.08,0,.16.01.24.02,1.06-.47,2.37-1.1,3.77-1.82,3.32-1.71,5.91-3.3,5.78-3.54Z"/>
  <path class="cls-3" d="m126,30.14c.17-.92-2.07-2.09-4.99-2.62l-18.3-3.3c-.09.13-.18.25-.29.34,6.99.37,13.77,4.73,20.71,6.09-.11.15-.23.29-.34.44,1.78.04,3.08-.3,3.2-.95Z"/>
  <path class="cls-3" d="m88.24,25.03c.09-.11.17-.24.24-.38l-.65-.03c-2.96-.15-5.4.49-5.45,1.42-.05.93,2.32,1.8,5.28,1.95l19.22.95c.86.04,1.67.01,2.4-.07.1-.16.19-.32.28-.48-7.06-.46-14.34-3.91-21.32-3.37Z"/>
  <path class="cls-3" d="m109.57,28.4c-.44-.03-.87-.07-1.31-.12-.68.86-1.43,1.88-2.21,3-2.28,3.27-3.86,6.1-3.54,6.33l2.1,1.46c.21.15,1.19-.86,2.47-2.48-.65.17-1.26.53-1.8,1.17-.31-3.99,2.53-6.21,4.29-9.36Z"/>
  <path class="cls-3" d="m126.55,29.92l-1.89-1.72c-.19-.17-1.3.71-2.8,2.17.43.11.85.2,1.28.29-2.15,2.89-5.25,4.73-5.46,8.73.62-.56,1.28-.84,1.94-.93.79-.77,1.68-1.69,2.61-2.72,2.68-2.95,4.61-5.55,4.32-5.82Z"/>
  <path class="cls-3" d="m106.58,20.92l-1.59-1.44c-.13-.12-.59.16-1.22.69.62.19,1.24.37,1.86.56-2-.1-2.15,2.89-3.2,3.84.5.03,1.01.08,1.51.14.1-.11.21-.22.31-.33,1.53-1.69,2.58-3.23,2.33-3.46Z"/>
  <path class="cls-3" d="m90.93,20.81c-.64-.11-1.28-.21-1.92-.32-.5.55-1.11,1.31-1.73,2.2-1.3,1.87-2.14,3.54-1.87,3.73l1.76,1.23c.25.18,1.38-1,2.58-2.67-.51,0-1.01.01-1.51.05.92-1.07.69-4.07,2.68-4.22Z"/>
  <path class="cls-3" d="m69.57,4.97l-.09-.06c-.21.65-.44,1.3-.71,1.94.61-1.05.94-1.78.79-1.88Z"/>
  <path class="cls-3" d="m65.06,12.16c.58-.69,1.3-1.63,2.04-2.69.67-.96,1.25-1.87,1.68-2.61.26-.64.5-1.29.71-1.94l-1.49-1.04c-.24-.17-1.75,1.57-3.36,3.88-1.61,2.31-2.72,4.33-2.48,4.5l1.58,1.1c.08.05.29-.1.59-.39-.1-.26-.14-.68-.17-1.11.3.12.6.22.9.32Z"/>
  <path class="cls-3" d="m65.06,12.16c-.3-.1-.6-.2-.9-.32.03.43.07.85.17,1.11.2-.2.45-.47.73-.8Z"/>
  <path class="cls-3" d="m105.82,37.22c-.19,0-.38,0-.56,0,0,.18,0,.35.02.54.17-.2.36-.38.54-.53Z"/>
  <path class="cls-3" d="m111.81,37.51l-5.72-.28c-.09,0-.18,0-.27,0-.19.15-.37.33-.54.53-.01-.18-.01-.36-.02-.54-1.56.02-2.73.34-2.75.78-.03.52,1.54,1.02,3.49,1.12l8.74.43c.22-.19.44-.37.66-.57-1.08-.27-2.32-.9-3.58-1.47Z"/>
  <path class="cls-3" d="m131.04,41.22l-6.85-1.24c1.18.72,2.33,1.51,3.37,1.92-.24.16-.48.32-.73.48l3.88.7c1.92.35,3.56.21,3.65-.3.09-.51-1.39-1.21-3.32-1.56Z"/>
  <path class="cls-3" d="m114.1,38.53c-1.39.78-4.38,2.73-7.79,5.09-4.63,3.2-8.27,5.96-8.14,6.15l.85,1.23c.12.17,3.29-1.81,7.32-4.56,3.07-2.38,6.07-4.84,9.06-7.46-.41-.1-.85-.26-1.3-.45Z"/>
  <path class="cls-3" d="m127.19,41.03c-.03-.05-.34.04-.87.26.42.24.84.45,1.23.61-3.3,2.22-6.6,4.27-9.95,6.23.46-.23.93-.47,1.41-.72,5-2.58,8.97-4.84,8.86-5.04l-.69-1.33Z"/>
  <path class="cls-3" d="m30.23,50.36l-14.34-8.23c-2.48-1.42-4.93-1.8-5.47-.85-.55.95,1.02,2.88,3.49,4.3l.51.29c-.04-.73-.03-1.43.05-2.11,4.87,1.53,11.26,11.03,15.76,6.6Z"/>
  <path class="cls-3" d="m30.82,58.97c-4.83,4.08-10.47-5.89-15.21-7.79-.13.67-.19,1.37-.21,2.1l14.83,10.09c1.93,1.31,3.88,1.91,4.87,1.6-1-1.89-2.6-3.44-3.22-5.29l-1.05-.71Z"/>
  <path class="cls-3" d="m31.95,51.35l-.62-.36c.76,1.8,2.48,3.23,3.62,5.03.22-.09.4-.2.5-.38.55-.95-1.02-2.88-3.49-4.3Z"/>
  <path class="cls-3" d="m30.96,49.51c-.15.2-.29.39-.44.56.03.08.06.15.09.23,1.44,3.45,2.81,6.16,3.06,6.05l1.17-.49c-1.44-2.19-3.69-3.84-3.88-6.35Z"/>
  <path class="cls-3" d="m30.96,49.51c.19,2.51,2.44,4.16,3.88,6.35l.48-.2c.25-.11-.7-2.99-2.14-6.43-1.44-3.45-2.81-6.16-3.06-6.05l-1.65.69c-.25.1.66,2.86,2.05,6.21.15-.17.3-.36.44-.56Z"/>
  <path class="cls-3" d="m37.95,8.28c-.81-.45-1.49-.99-2.08-1.58l-17.68,3.65c-2.9.6-5.11,1.83-4.92,2.74.11.52.97.81,2.21.87,6.71-3.5,14.4-7.05,22.47-5.68Z"/>
  <path class="cls-3" d="m43.15,9.57l-1.17.24c.59.59,1.27,1.12,2.08,1.58-8.07-1.37-15.76,2.18-22.47,5.68.96.05,2.13-.04,3.39-.3l18.85-3.89c2.91-.6,5.11-1.83,4.92-2.74-.19-.91-2.69-1.17-5.6-.57Z"/>
  <path class="cls-3" d="m14.17,11.24l-1.85,1.77c-.26.25,1.43,2.47,3.87,5.08,1,.08,2.03.32,3.12.76-1.15-1.92-2.3-3.83-4.37-4.68.63-.33,1.27-.66,1.92-.98-1.45-1.33-2.5-2.11-2.68-1.94Z"/>
  <path class="cls-3" d="m25.81,21.82c-1.09-.44-2.12-.68-3.12-.76.19.21.39.42.6.63,2.75,2.88,5.21,5,5.5,4.73l1.85-1.77c.29-.27-1.71-2.83-4.47-5.71-1.01-1.06-1.98-2.01-2.82-2.78-.65.33-1.29.66-1.92.98,2.07.84,3.22,2.76,4.37,4.68Z"/>
  <path class="cls-3" d="m32.69,2.65l-.64.61c-.2.19.78,1.56,2.2,3.04.34.36.68.69.99.98.6.05,1.2.12,1.81.22-2.14-1.2-3.39-2.94-4.36-4.85Z"/>
  <path class="cls-3" d="m43.33,8.21c-1.42-1.48-2.73-2.53-2.94-2.34l-.69.66c.97,1.91,2.22,3.65,4.36,4.85-.61-.1-1.21-.17-1.81-.22.99.93,1.79,1.5,1.95,1.35l1.32-1.26c.2-.2-.78-1.56-2.2-3.04Z"/>
  <path class="cls-3" d="m15.57,60.75l1.15.04c.3.01.63-2.25.74-5.06.05-1.35.04-2.58-.01-3.49-.63-.46-1.24-.83-1.84-1.07-.57,2.85.16,6.35-.03,9.57Z"/>
  <path class="cls-3" d="m14,43.18c-.3.01-.45,2.3-.35,5.1.11,2.81.43,5.07.73,5.06l.78-.03c-.06-3.23-1.05-6.66-.7-9.55.62.19,1.26.52,1.92.92-.14-.97-.3-1.59-.45-1.58l-1.93.07Z"/>
  <path class="cls-3" d="m3.95,21.05c-1.91.39-3.38,1.13-3.28,1.64.04.2.33.34.78.4,2.21-.56,4.31-1.76,6.46-2.86l-3.96.82Z"/>
  <path class="cls-3" d="m24.29,21.32c.5.12,1,.29,1.52.5-.11-.18-.22-.36-.33-.54-.35-.02-.75,0-1.19.04Z"/>
  <path class="cls-3" d="m24.29,21.32c-.4.04-.84.1-1.29.2l-8.47,1.75c-2.15,1.1-4.25,2.3-6.46,2.86.68.1,1.72.04,2.88-.19l12.43-2.56c1.92-.4,3.38-1.13,3.28-1.64-.05-.26-.5-.41-1.18-.44.11.18.22.36.33.54-.52-.21-1.02-.38-1.52-.5Z"/>
  <path class="cls-3" d="m151.39,41.05c2.82,1.37,5.19,2.31,5.29,2.1l.65-1.35c.1-.21-2.11-1.49-4.93-2.86h0c-2.82-1.37-5.19-2.31-5.29-2.1l-.65,1.35c-.1.21,2.11,1.49,4.93,2.85h0Z"/>
  <path class="cls-3" d="m146.95,14.78c-.02,1.1,2.29,2.02,5.14,2.07l18.52.28c2.86.04,5.18-.81,5.2-1.91h0c.02-1.1-2.28-2.02-5.14-2.07l-18.52-.28c-2.85-.04-5.18.81-5.2,1.91h0Z"/>
  <path class="cls-3" d="m152.04,19.3c2.93,2.32,5.44,4.03,5.61,3.81l1.11-1.4c.17-.22-2.06-2.27-4.99-4.59h0c-2.93-2.32-5.44-4.03-5.61-3.81l-1.11,1.4c-.17.22,2.06,2.27,4.99,4.59h0Z"/>
  <path class="cls-3" d="m167.09,12.37c1.4,2.32,2.74,4.08,2.98,3.94l1.58-.96c.24-.15-.7-2.15-2.1-4.47h0c-1.4-2.32-2.74-4.08-2.98-3.94l-1.58.96c-.24.15.7,2.15,2.1,4.47h0Z"/>
  <path class="cls-2" d="m58.61,25.97c.08.99-1.71,1.94-3.99,2.11l-14.8,1.14c-2.28.18-4.19-.48-4.27-1.47h0c-.08-.99,1.71-1.94,3.99-2.11l14.8-1.14c2.28-.18,4.19.48,4.27,1.47h0Z"/>
  <path class="cls-2" d="m61.72,14.56l-10.25.79c-1.58.12-2.81.9-2.74,1.73s1.4,1.41,2.98,1.29l10.25-.79c1.58-.12,2.81-.9,2.75-1.73s-1.4-1.41-2.98-1.29Z"/>
  <path class="cls-4" d="m128.07,15.1l-14.73-1.87c-2.27-.29-4.21.28-4.34,1.26s1.61,2.02,3.88,2.31l14.73,1.87c2.27.29,4.21-.28,4.34-1.26s-1.62-2.02-3.88-2.3Z"/>
</svg>