<?xml version="1.0" encoding="UTF-8"?>
<svg id="OBJECTS" xmlns="http://www.w3.org/2000/svg" viewBox="0 0 176.22 67.07">
  <defs>
    <style>
      .cls-1 {
        fill: #816cae;
      }

      .cls-2 {
        fill: #ab70ad;
      }

      .cls-3 {
        fill: #2297b2;
      }

      .cls-4 {
        fill: #5d56a1;
      }
    </style>
  </defs>
  <g>
    <path class="cls-4" d="m164.75,46.64c0,6.58-9.28,11.91-20.72,11.91H32.18c-11.44,0-20.71-5.33-20.71-11.91v-26.21c0-6.58,9.27-11.91,20.71-11.91h111.86c11.44,0,20.72,5.33,20.72,11.91v26.21Z"/>
    <path class="cls-1" d="m144.04,8.51H32.18c-11.44,0-20.71,4.02-20.71,8.99v9.59c0,4.96,9.27,8.99,20.71,8.99h111.86c11.44,0,20.72-4.02,20.72-8.99v-9.59c0-4.96-9.28-8.99-20.72-8.99Z"/>
  </g>
  <path class="cls-3" d="m91.82,19.69c-.14,1.09-2.55,1.68-5.38,1.32l-18.37-2.34c-2.83-.36-5.02-1.54-4.88-2.63h0c.14-1.09,2.55-1.68,5.38-1.32l18.37,2.34c2.83.36,5.02,1.54,4.88,2.63h0Z"/>
  <path class="cls-3" d="m97.52,32.98c-1.44,1.76-2.82,3.03-3.08,2.82l-1.66-1.36c-.26-.21.71-1.81,2.15-3.57h0c1.44-1.76,2.82-3.03,3.07-2.82l1.66,1.36c.26.21-.71,1.81-2.15,3.57h0Z"/>
  <path class="cls-3" d="m72.34,14.32c-1.78,2.18-3.42,3.8-3.65,3.61l-1.49-1.22c-.23-.19,1.03-2.11,2.81-4.29h0c1.78-2.18,3.42-3.8,3.65-3.61l1.49,1.22c.23.19-1.03,2.11-2.81,4.29h0Z"/>
  <path class="cls-3" d="m125.07,47.99c-.07.52-1.69.74-3.63.49l-12.59-1.6c-1.94-.25-3.46-.87-3.39-1.38h0c.07-.52,1.69-.74,3.63-.49l12.59,1.6c1.94.25,3.46.87,3.39,1.38h0Z"/>
  <path class="cls-3" d="m109.98,53.42c-4.86,2.84-8.9,4.98-9.01,4.78l-.76-1.3c-.12-.2,3.73-2.66,8.59-5.5h0c4.86-2.84,8.89-4.98,9.01-4.78l.76,1.3c.12.2-3.73,2.66-8.59,5.5h0Z"/>
  <path class="cls-3" d="m37.23,57.93c.62-.91-.79-2.95-3.15-4.55l-15.31-10.43c-2.36-1.61-4.77-2.17-5.39-1.27h0c-.62.91.79,2.95,3.15,4.55l15.31,10.43c2.36,1.61,4.77,2.17,5.39,1.27h0Z"/>
  <path class="cls-3" d="m28.3,22.7c1.43,1.75,2.77,3.03,2.99,2.85l1.42-1.16c.22-.18-.77-1.74-2.2-3.5h0c-1.43-1.75-2.77-3.03-2.99-2.85l-1.42,1.16c-.22.18.77,1.74,2.2,3.5h0Z"/>
  <path class="cls-3" d="m19.08,49.02c.11-2.81-.04-5.09-.34-5.1l-1.93-.08c-.3-.01-.63,2.25-.74,5.06h0c-.11,2.8.04,5.09.34,5.1l1.93.08c.3.01.63-2.25.74-5.06h0Z"/>
  <path class="cls-3" d="m11.47,25.93c.07.52,1.69.74,3.63.49l12.59-1.6c1.94-.25,3.46-.87,3.39-1.38h0c-.07-.52-1.69-.74-3.63-.49l-12.59,1.6c-1.94.25-3.46.87-3.39,1.38h0Z"/>
  <path class="cls-3" d="m153.95,52.3c2.71,1.58,5,2.7,5.12,2.5l.76-1.3c.12-.2-1.99-1.64-4.69-3.23h0c-2.71-1.58-5-2.7-5.12-2.5l-.76,1.3c-.12.2,1.99,1.64,4.69,3.23h0Z"/>
  <path class="cls-3" d="m134.99,20.54c.17,1.09,2.59,1.62,5.41,1.18l18.31-2.81c2.82-.43,4.97-1.66,4.81-2.75h0c-.17-1.09-2.59-1.62-5.41-1.18l-18.31,2.81c-2.82.43-4.97,1.66-4.81,2.75h0Z"/>
  <path class="cls-3" d="m154.45,14.81c1.77,2.06,3.38,3.57,3.6,3.39l1.4-1.21c.22-.19-1.04-2-2.81-4.06h0c-1.77-2.05-3.38-3.57-3.6-3.38l-1.4,1.21c-.22.19,1.04,2,2.81,4.06h0Z"/>
  <path class="cls-2" d="m62.61,30.12c0,.99-1.85,1.8-4.14,1.8h-14.84c-2.29,0-4.14-.8-4.14-1.8h0c0-.99,1.86-1.8,4.14-1.8h14.84c2.29,0,4.14.81,4.14,1.8h0Z"/>
  <path class="cls-2" d="m69.46,20.5c0,.84-1.28,1.51-2.87,1.51h-10.28c-1.58,0-2.87-.68-2.87-1.51h0c0-.84,1.29-1.51,2.87-1.51h10.28c1.59,0,2.87.68,2.87,1.51h0Z"/>
  <path class="cls-4" d="m127.63,22.3c0,.99-1.86,1.8-4.14,1.8h-14.84c-2.29,0-4.14-.8-4.14-1.8h0c0-.99,1.85-1.8,4.14-1.8h14.84c2.29,0,4.14.8,4.14,1.8h0Z"/>
</svg>