<?xml version="1.0" encoding="UTF-8"?>
<svg id="Calque_2" data-name="Calque 2" xmlns="http://www.w3.org/2000/svg" viewBox="0 0 153.29 50.04">
  <defs>
    <style>
      .cls-1 {
        fill: #816cae;
      }

      .cls-2 {
        fill: #ab70ad;
      }

      .cls-3 {
        fill: #5d56a1;
      }
    </style>
  </defs>
  <g id="OBJECTS">
    <g>
      <g>
        <path class="cls-3" d="m153.29,38.13c0,6.58-9.28,11.91-20.72,11.91H20.71c-11.44,0-20.71-5.33-20.71-11.91V11.91C0,5.33,9.27,0,20.71,0h111.86c11.44,0,20.72,5.33,20.72,11.91v26.21Z"/>
        <path class="cls-1" d="m132.57,0H20.71C9.27,0,0,4.02,0,8.99v9.59c0,4.96,9.27,8.99,20.71,8.99h111.86c11.44,0,20.72-4.02,20.72-8.99v-9.59c0-4.96-9.28-8.99-20.72-8.99Z"/>
      </g>
      <path class="cls-2" d="m51.15,21.61c0,.99-1.85,1.8-4.14,1.8h-14.84c-2.29,0-4.14-.8-4.14-1.8h0c0-.99,1.86-1.8,4.14-1.8h14.84c2.29,0,4.14.81,4.14,1.8h0Z"/>
      <path class="cls-2" d="m58,11.98c0,.84-1.28,1.51-2.87,1.51h-10.28c-1.58,0-2.87-.68-2.87-1.51h0c0-.84,1.29-1.51,2.87-1.51h10.28c1.59,0,2.87.68,2.87,1.51h0Z"/>
      <path class="cls-3" d="m116.16,13.78c0,.99-1.86,1.8-4.14,1.8h-14.84c-2.29,0-4.14-.8-4.14-1.8h0c0-.99,1.85-1.8,4.14-1.8h14.84c2.29,0,4.14.8,4.14,1.8h0Z"/>
    </g>
  </g>
</svg>