<?xml version="1.0" encoding="UTF-8"?>
<svg id="Calque_2" data-name="Calque 2" xmlns="http://www.w3.org/2000/svg" viewBox="0 0 153.29 50.04">
  <defs>
    <style>
      .cls-1 {
        fill: #816cae;
      }

      .cls-2 {
        fill: #ab70ad;
      }

      .cls-3 {
        fill: #2297b2;
      }

      .cls-4 {
        fill: #5d56a1;
      }
    </style>
  </defs>
  <g id="OBJECTS">
    <g>
      <g>
        <path class="cls-4" d="m153.29,38.13c0,6.58-9.28,11.91-20.72,11.91H20.71c-11.44,0-20.71-5.33-20.71-11.91V11.91C0,5.33,9.27,0,20.71,0h111.86c11.44,0,20.72,5.33,20.72,11.91v26.21Z"/>
        <path class="cls-1" d="m132.57,0H20.71C9.27,0,0,4.02,0,8.99v9.59c0,4.96,9.27,8.99,20.71,8.99h111.86c11.44,0,20.72-4.02,20.72-8.99v-9.59c0-4.96-9.28-8.99-20.72-8.99Z"/>
      </g>
      <path class="cls-3" d="m80.36,11.18c-.14,1.09-2.55,1.68-5.38,1.32l-18.37-2.34c-2.83-.36-5.02-1.54-4.88-2.63h0c.14-1.09,2.55-1.68,5.38-1.32l18.37,2.34c2.83.36,5.02,1.54,4.88,2.63h0Z"/>
      <path class="cls-3" d="m87.35,19.25c-.07.52-1.69.74-3.63.49l-12.59-1.6c-1.94-.25-3.46-.87-3.39-1.38h0c.07-.52,1.69-.74,3.63-.49l12.59,1.6c1.94.25,3.46.87,3.39,1.38h0Z"/>
      <path class="cls-3" d="m74.67,14.94c-3.23,1.88-5.95,3.22-6.09,2.98l-.9-1.54c-.14-.24,2.36-1.96,5.59-3.84h0c3.22-1.88,5.95-3.22,6.09-2.98l.9,1.54c.14.24-2.36,1.96-5.59,3.84h0Z"/>
      <path class="cls-3" d="m104.59,27.29c-.12.92-2.6,1.37-5.54,1l-19.09-2.43c-2.94-.37-5.23-1.43-5.12-2.35h0c.12-.92,2.6-1.37,5.54-1l19.09,2.43c2.94.37,5.23,1.43,5.12,2.35h0Z"/>
      <path class="cls-3" d="m101.11,33.07c-2.52,3.09-4.81,5.38-5.12,5.14l-1.98-1.62c-.31-.25,1.49-2.95,4.01-6.04h0c2.52-3.08,4.81-5.38,5.12-5.13l1.98,1.62c.3.25-1.49,2.95-4.01,6.04h0Z"/>
      <path class="cls-3" d="m82.57,22.66c-1.44,1.76-2.82,3.03-3.08,2.82l-1.66-1.36c-.26-.21.71-1.81,2.15-3.57h0c1.44-1.76,2.82-3.03,3.07-2.82l1.66,1.36c.26.21-.71,1.81-2.15,3.57h0Z"/>
      <path class="cls-3" d="m60.88,5.81c-1.78,2.18-3.42,3.8-3.65,3.61l-1.49-1.22c-.23-.19,1.03-2.11,2.81-4.29h0c1.78-2.18,3.42-3.8,3.65-3.61l1.49,1.22c.23.19-1.03,2.11-2.81,4.29h0Z"/>
      <path class="cls-3" d="m113.6,39.47c-.07.52-1.69.74-3.63.49l-12.59-1.6c-1.94-.25-3.46-.87-3.39-1.38h0c.07-.52,1.69-.74,3.63-.49l12.59,1.6c1.94.25,3.46.87,3.39,1.38h0Z"/>
      <path class="cls-3" d="m98.52,44.9c-4.86,2.84-8.9,4.98-9.01,4.78l-.76-1.3c-.12-.2,3.73-2.66,8.59-5.5h0c4.86-2.84,8.89-4.98,9.01-4.78l.76,1.3c.12.2-3.73,2.66-8.59,5.5h0Z"/>
      <path class="cls-3" d="m25.76,49.42c.62-.91-.79-2.95-3.15-4.55l-15.31-10.43c-2.36-1.61-4.77-2.17-5.39-1.27h0c-.62.91.79,2.95,3.15,4.55l15.31,10.43c2.36,1.61,4.77,2.17,5.39,1.27h0Z"/>
      <path class="cls-3" d="m24,42.84c-1.17-3.55-2.33-6.36-2.59-6.27l-1.7.56c-.26.09.47,3.03,1.64,6.58h0c1.17,3.55,2.32,6.36,2.59,6.27l1.7-.56c.26-.09-.47-3.03-1.64-6.58h0Z"/>
      <path class="cls-3" d="m12.78,8.84c.12.92,2.6,1.37,5.54,1l19.09-2.43c2.94-.37,5.23-1.43,5.12-2.35h0c-.12-.92-2.6-1.37-5.54-1l-19.09,2.43c-2.94.37-5.23,1.43-5.12,2.35h0Z"/>
      <path class="cls-3" d="m16.26,14.63c2.52,3.09,4.81,5.38,5.12,5.14l1.98-1.62c.31-.25-1.49-2.95-4.01-6.04h0c-2.52-3.08-4.81-5.38-5.12-5.13l-1.98,1.62c-.3.25,1.49,2.95,4.01,6.04h0Z"/>
      <path class="cls-3" d="m35.06,4.54c1.3,1.59,2.53,2.73,2.75,2.56l1.42-1.16c.22-.18-.66-1.61-1.96-3.2h0C35.97,1.14,34.74,0,34.52.18l-1.42,1.16c-.22.18.66,1.61,1.96,3.2h0Z"/>
      <path class="cls-3" d="m7.62,40.51c.11-2.81-.04-5.09-.34-5.1l-1.93-.08c-.3-.01-.63,2.25-.74,5.06h0c-.11,2.8.04,5.09.34,5.1l1.93.08c.3.01.63-2.25.74-5.06h0Z"/>
      <path class="cls-3" d="m0,17.41c.07.52,1.69.74,3.63.49l12.59-1.6c1.94-.25,3.46-.87,3.39-1.38h0c-.07-.52-1.69-.74-3.63-.49l-12.59,1.6c-1.94.25-3.46.87-3.39,1.38H0Z"/>
      <path class="cls-3" d="m142.48,43.79c2.71,1.58,5,2.7,5.12,2.5l.76-1.3c.12-.2-1.99-1.64-4.69-3.23h0c-2.71-1.58-5-2.7-5.12-2.5l-.76,1.3c-.12.2,1.99,1.64,4.69,3.23h0Z"/>
      <path class="cls-3" d="m123.52,12.03c.17,1.09,2.59,1.62,5.41,1.18l18.31-2.81c2.82-.43,4.97-1.66,4.81-2.75h0c-.17-1.09-2.59-1.62-5.41-1.18l-18.31,2.81c-2.82.43-4.97,1.66-4.81,2.75h0Z"/>
      <path class="cls-3" d="m129.3,15.64c3.27,1.8,6.04,3.06,6.17,2.82l.86-1.57c.13-.24-2.41-1.9-5.69-3.7h0c-3.27-1.8-6.03-3.06-6.17-2.82l-.86,1.57c-.13.24,2.41,1.9,5.69,3.7h0Z"/>
      <path class="cls-3" d="m142.99,6.3c1.77,2.06,3.38,3.57,3.6,3.39l1.4-1.21c.22-.19-1.04-2-2.81-4.06h0c-1.77-2.05-3.38-3.57-3.6-3.38l-1.4,1.21c-.22.19,1.04,2,2.81,4.06h0Z"/>
      <path class="cls-2" d="m51.15,21.61c0,.99-1.85,1.8-4.14,1.8h-14.84c-2.29,0-4.14-.8-4.14-1.8h0c0-.99,1.86-1.8,4.14-1.8h14.84c2.29,0,4.14.81,4.14,1.8h0Z"/>
      <path class="cls-2" d="m58,11.98c0,.84-1.28,1.51-2.87,1.51h-10.28c-1.58,0-2.87-.68-2.87-1.51h0c0-.84,1.29-1.51,2.87-1.51h10.28c1.59,0,2.87.68,2.87,1.51h0Z"/>
      <path class="cls-4" d="m116.16,13.78c0,.99-1.86,1.8-4.14,1.8h-14.84c-2.29,0-4.14-.8-4.14-1.8h0c0-.99,1.85-1.8,4.14-1.8h14.84c2.29,0,4.14.8,4.14,1.8h0Z"/>
    </g>
  </g>
</svg>