<?xml version="1.0" encoding="UTF-8"?>
<svg id="Calque_2" data-name="Calque 2" xmlns="http://www.w3.org/2000/svg" viewBox="0 0 153.29 50.04">
  <defs>
    <style>
      .cls-1 {
        fill: #2297b2;
      }

      .cls-2 {
        fill: #279dc1;
      }

      .cls-3 {
        fill: #73d2ef;
      }

      .cls-4 {
        fill: #4dafd6;
      }
    </style>
  </defs>
  <g id="OBJECTS">
    <g>
      <path class="cls-2" d="m153.29,38.13c0,6.58-9.28,11.91-20.72,11.91H20.71c-11.44,0-20.71-5.33-20.71-11.91V11.91C0,5.33,9.27,0,20.71,0h111.86c11.44,0,20.72,5.33,20.72,11.91v26.21Z"/>
      <path class="cls-4" d="m132.57,0H20.71C9.27,0,0,4.02,0,8.99v9.59c0,4.96,9.27,8.99,20.71,8.99h111.86c11.44,0,20.72-4.02,20.72-8.99v-9.59c0-4.96-9.28-8.99-20.72-8.99Z"/>
      <path class="cls-3" d="m32.97,13.78c0,.99-1.85,1.8-4.14,1.8h-14.85c-2.29,0-4.14-.8-4.14-1.8h0c0-.99,1.85-1.8,4.14-1.8h14.85c2.29,0,4.14.81,4.14,1.8h0Z"/>
      <path class="cls-3" d="m51.61,22.17c0,.99-1.85,1.8-4.14,1.8h-14.84c-2.29,0-4.14-.8-4.14-1.8h0c0-.99,1.86-1.8,4.14-1.8h14.84c2.29,0,4.14.81,4.14,1.8h0Z"/>
      <path class="cls-1" d="m108.32,15.58c0,.99-1.86,1.8-4.14,1.8h-14.84c-2.29,0-4.14-.8-4.14-1.8h0c0-.99,1.85-1.8,4.14-1.8h14.84c2.29,0,4.14.8,4.14,1.8h0Z"/>
      <path class="cls-1" d="m141.64,17.38c0,.99-1.18,1.8-2.63,1.8h-9.42c-1.45,0-2.63-.8-2.63-1.8h0c0-.99,1.18-1.8,2.63-1.8h9.42c1.45,0,2.63.81,2.63,1.8h0Z"/>
      <path class="cls-3" d="m56.96,8.99c0,.99-1.36,1.8-3.03,1.8h-10.86c-1.67,0-3.03-.8-3.03-1.8h0c0-.99,1.36-1.8,3.03-1.8h10.86c1.67,0,3.03.81,3.03,1.8h0Z"/>
    </g>
  </g>
</svg>