<?xml version="1.0" encoding="UTF-8"?>
<svg xmlns="http://www.w3.org/2000/svg" xmlns:xlink="http://www.w3.org/1999/xlink" viewBox="0 0 133.73 97.26">
  <defs>
    <style>
      .cls-1 {
        fill: url(#linear-gradient);
      }

      .cls-2 {
        fill: none;
        isolation: isolate;
      }

      .cls-3 {
        fill: #fd8e00;
        mix-blend-mode: multiply;
        opacity: .2;
      }

      .cls-4 {
        fill: #fff;
        mix-blend-mode: soft-light;
      }
    </style>
    <linearGradient id="linear-gradient" x1="-964.65" y1="1859.84" x2="-861.81" y2="2116.53" gradientTransform="translate(1969.73 -953.5) rotate(36.45)" gradientUnits="userSpaceOnUse">
      <stop offset="0" stop-color="#ffab86"/>
      <stop offset=".5" stop-color="#ec4a08"/>
      <stop offset="1" stop-color="#6b1000"/>
    </linearGradient>
  </defs>
  <g class="cls-2">
    <g id="Calque_2" data-name="Calque 2">
      <g id="OBJECTS">
        <g>
          <path class="cls-1" d="m121.61,39.28c-13.01-9.61-30.52-12.86-42.32-2.46C61.57,21.65,43.98,8.91,26.62.54c-2.43-1.17-5.34-.39-6.88,1.83C13.19,11.83-5.02,39.27,1.57,43.55c8.21,5.33,25.62-15.94,25.62-15.94l7.86,5.81s-8.91,11.78-.85,17.31c8.06,5.53,17.05-8.08,17.05-8.08l16.49,11.68c-4.36,12.9-1.14,27.37,10.32,35.84,14.6,10.78,37.68,9.44,48.46-5.16,10.78-14.6,9.69-34.94-4.92-45.73Zm-32.27,37.62c-7.01-5.18-7.6-15.03-2.43-22.04,5.18-7.01,16.32-7.56,23.33-2.39,7.01,5.18,7.54,14.94,2.36,21.95-5.18,7.01-16.26,7.65-23.27,2.48Z"/>
          <path class="cls-3" d="m78.07,90.16c14.6,10.78,37.68,9.44,48.46-5.16,10.78-14.6,9.69-34.94-4.92-45.73-1.72-1.27-3.56-2.37-5.49-3.31,2.89,2.94,5.49,5.88,7.37,9.62,2.16,4.29,3.35,9.07,3.25,13.88-.23,11.52-8.1,22.67-19.07,26.2-10.97,3.52-24.2-1.26-29.9-11.28-4.02-7.07-4.25-15.62-6.86-23.32-2.61-7.7-9.59-15.33-17.56-13.73-3.47.7-6.72,3.09-10.2,2.45-3.35-.61-5.55-3.84-6.8-7.01-1.25-3.16-1.99-6.64-4.15-9.27-4.31-5.26-12.47-5.13-18.94-3.02-2.33.76-4.61,1.71-6.9,2.62C1.38,32.13-2.19,41.11,1.57,43.55c8.21,5.33,25.62-15.94,25.62-15.94l7.86,5.81s-8.91,11.78-.85,17.31c8.06,5.53,17.05-8.08,17.05-8.08l16.49,11.68c-4.36,12.9-1.14,27.37,10.32,35.84Z"/>
          <g>
            <path class="cls-4" d="m29.35,7.55c-.75-.25-1.52-.48-2.3-.43s-1.59.42-1.96,1.11c-.31.59-.26,1.32,0,1.94.25.62.69,1.14,1.13,1.64,4.1,4.62,9.64,7.94,15.63,9.42,1.31.32,3.22.94,4.39-.05.86-.73.68-1.94.2-2.84-.67-1.27-2.02-2.21-3.11-3.1-1.26-1.03-2.58-1.99-3.95-2.88-3.12-2.02-6.5-3.64-10.02-4.81Z"/>
            <path class="cls-4" d="m48.58,21.38c-.31.16-.48.51-.5.86-.02.35.08.69.21,1.01.42,1.11,1.09,2.12,1.94,2.95.67.66,1.55,1.25,2.53,1.09.66-.1,1.33-.53,1.42-1.24.18-1.45-1.55-2.79-2.59-3.48-.69-.46-2.13-1.65-3.01-1.2Z"/>
          </g>
        </g>
      </g>
    </g>
  </g>
</svg>