<?xml version="1.0" encoding="UTF-8"?>
<svg id="Calque_2" data-name="Calque 2" xmlns="http://www.w3.org/2000/svg" viewBox="0 0 38.78 113.76">
  <defs>
    <style>
      .cls-1 {
        fill: #ed6a7c;
      }

      .cls-2 {
        fill: #b1515e;
      }

      .cls-3 {
        fill: #bc6ca9;
      }
    </style>
  </defs>
  <g id="OBJECTS">
    <g>
      <g>
        <rect class="cls-1" x="0" y="0" width="26.67" height="113.76"/>
        <rect class="cls-2" x="26.67" y="0" width="6.58" height="113.76"/>
        <rect class="cls-1" x="32.2" y="0" width="6.58" height="113.76"/>
      </g>
      <g>
        <path class="cls-3" d="m13.14,98.57c-.99,0-1.8-6.08-1.81-13.57l-.04-48.62c0-7.5.79-13.57,1.79-13.57h0c.99,0,1.8,6.07,1.81,13.57l.04,48.62c0,7.49-.79,13.57-1.79,13.57h0Z"/>
        <path class="cls-3" d="m13.49,98.74c-.97-.14-1.39-1.59-.93-3.25l3-10.75c.46-1.66,1.63-2.89,2.6-2.75h0c.97.14,1.39,1.59.93,3.25l-3,10.75c-.46,1.66-1.63,2.89-2.6,2.75h0Z"/>
        <path class="cls-3" d="m13.69,98.56c.97-.14,1.39-1.6.92-3.25l-3.02-10.75c-.46-1.66-1.63-2.89-2.6-2.75h0c-.97.14-1.39,1.59-.92,3.25l3.02,10.75c.46,1.66,1.63,2.89,2.6,2.75h0Z"/>
        <path class="cls-3" d="m12.98,18.57c-.97.14-1.39,1.6-.92,3.25l3.02,10.75c.46,1.66,1.63,2.89,2.6,2.75h0c.97-.14,1.39-1.59.92-3.25l-3.02-10.75c-.46-1.66-1.63-2.89-2.6-2.75h0Z"/>
        <path class="cls-3" d="m13.18,18.75c.97.14,1.39,1.59.93,3.25l-3,10.75c-.46,1.66-1.63,2.89-2.6,2.75h0c-.97-.14-1.39-1.59-.93-3.25l3-10.75c.46-1.66,1.63-2.89,2.6-2.75h0Z"/>
      </g>
    </g>
  </g>
</svg>