<?xml version="1.0" encoding="UTF-8"?>
<svg id="Calque_2" data-name="Calque 2" xmlns="http://www.w3.org/2000/svg" viewBox="0 0 1417.78 92.66">
  <defs>
    <style>
      .cls-1 {
        fill: #a07138;
      }

      .cls-2 {
        fill: #b58a4d;
      }

      .cls-3 {
        fill: #ba8c5a;
      }

      .cls-4 {
        fill: #c1a36f;
      }
    </style>
  </defs>
  <g id="OBJECTS">
    <g>
      <g>
        <g>
          <rect class="cls-4" x="710.8" y="43.67" width="355.4" height="48.99"/>
          <path class="cls-2" d="m749.1,59.7c0,3.58-2.9,6.48-6.48,6.48h-13.42c-3.58,0-6.48-2.9-6.48-6.48h0c0-3.58,2.9-6.48,6.48-6.48h13.42c3.58,0,6.48,2.9,6.48,6.48h0Z"/>
          <path class="cls-2" d="m851.68,57.84c0,3.58-2.9,6.48-6.48,6.48h-13.42c-3.58,0-6.48-2.9-6.48-6.48h0c0-3.58,2.9-6.48,6.48-6.48h13.42c3.58,0,6.48,2.9,6.48,6.48h0Z"/>
          <path class="cls-2" d="m878.07,76.74c0,3.58-2.9,6.48-6.48,6.48h-13.42c-3.58,0-6.48-2.9-6.48-6.48h0c0-3.58,2.9-6.49,6.48-4.63h13.42c3.58-1.86,6.48,1.05,6.48,4.63h0Z"/>
          <path class="cls-2" d="m1004.63,76.74c0,3.58-2.9,6.48-6.48,6.48h-13.42c-3.58,0-6.48-2.9-6.48-6.48h0c0-3.58,2.9-6.49,6.48-6.49h13.42c3.58,0,6.48,2.9,6.48,6.49h0Z"/>
          <path class="cls-2" d="m779.75,78.6c0,3.58-2.9,6.48-6.48,6.48h-24.95c-3.58,0-6.48-2.9-6.48-6.48h0c0-3.58,2.9-6.49,6.48-6.49h24.95c3.58,0,6.48,2.9,6.48,6.49h0Z"/>
          <path class="cls-2" d="m1051.27,57.84c0,3.58-2.9,6.48-6.48,6.48h-24.95c-3.58,0-6.48-2.9-6.48-6.48h0c0-3.58,2.9-6.48,6.48-6.48h24.95c3.58,0,6.48,2.9,6.48,6.48h0Z"/>
          <path class="cls-2" d="m936.51,64.32c0,3.58-2.9,6.48-6.48,6.48h-24.95c-3.58,0-6.48-2.9-6.48-6.48h0c0-3.58,2.9-6.49,6.48-6.49h24.95c3.58,0,6.48,2.9,6.48,6.49h0Z"/>
          <rect class="cls-1" x="710.8" y="31.59" width="355.4" height="12.08"/>
          <rect class="cls-4" x="710.8" y="21.43" width="355.4" height="12.08"/>
        </g>
        <g>
          <path class="cls-1" d="m843.72,15.39c0,4.76-3.86,8.61-8.61,8.61h-19.63c-4.76,0-8.61-3.86-8.61-8.61h0c0-4.76,3.86-8.61,8.61-8.61h19.63c4.76,0,8.61,3.86,8.61,8.61h0Z"/>
          <path class="cls-1" d="m1039.7,15.39c0,4.05-3.28,7.33-7.33,7.33h-16.71c-4.05,0-7.33-3.28-7.33-7.33h0c0-4.05,3.28-7.33,7.33-7.33h16.71c4.05,0,7.33,3.28,7.33,7.33h0Z"/>
          <path class="cls-3" d="m994.31,11.36c0,6.27-5.09,11.36-11.36,11.36h-25.89c-6.27,0-11.36-5.09-11.36-11.36h0c0-6.27,5.09-11.36,11.36-11.36h25.89c6.27,0,11.36,5.09,11.36,11.36h0Z"/>
        </g>
      </g>
      <g>
        <g>
          <rect class="cls-4" x="1062.38" y="43.67" width="355.4" height="48.99"/>
          <path class="cls-2" d="m1100.68,59.7c0,3.58-2.9,6.48-6.48,6.48h-13.42c-3.58,0-6.48-2.9-6.48-6.48h0c0-3.58,2.9-6.48,6.48-6.48h13.42c3.58,0,6.48,2.9,6.48,6.48h0Z"/>
          <path class="cls-2" d="m1203.26,57.84c0,3.58-2.9,6.48-6.48,6.48h-13.42c-3.58,0-6.48-2.9-6.48-6.48h0c0-3.58,2.9-6.48,6.48-6.48h13.42c3.58,0,6.48,2.9,6.48,6.48h0Z"/>
          <path class="cls-2" d="m1229.65,76.74c0,3.58-2.9,6.48-6.48,6.48h-13.42c-3.58,0-6.48-2.9-6.48-6.48h0c0-3.58,2.9-6.49,6.48-4.63h13.42c3.58-1.86,6.48,1.05,6.48,4.63h0Z"/>
          <path class="cls-2" d="m1356.22,76.74c0,3.58-2.9,6.48-6.48,6.48h-13.42c-3.58,0-6.48-2.9-6.48-6.48h0c0-3.58,2.9-6.49,6.48-6.49h13.42c3.58,0,6.48,2.9,6.48,6.49h0Z"/>
          <path class="cls-2" d="m1131.34,78.6c0,3.58-2.9,6.48-6.48,6.48h-24.95c-3.58,0-6.48-2.9-6.48-6.48h0c0-3.58,2.9-6.49,6.48-6.49h24.95c3.58,0,6.48,2.9,6.48,6.49h0Z"/>
          <path class="cls-2" d="m1402.85,57.84c0,3.58-2.9,6.48-6.48,6.48h-24.95c-3.58,0-6.48-2.9-6.48-6.48h0c0-3.58,2.9-6.48,6.48-6.48h24.95c3.58,0,6.48,2.9,6.48,6.48h0Z"/>
          <path class="cls-2" d="m1288.09,64.32c0,3.58-2.9,6.48-6.48,6.48h-24.95c-3.58,0-6.48-2.9-6.48-6.48h0c0-3.58,2.9-6.49,6.48-6.49h24.95c3.58,0,6.48,2.9,6.48,6.49h0Z"/>
          <rect class="cls-1" x="1062.38" y="31.59" width="355.4" height="12.08"/>
          <rect class="cls-4" x="1062.38" y="21.43" width="355.4" height="12.08"/>
        </g>
        <g>
          <path class="cls-1" d="m1289.29,14.11c0,4.76-3.86,8.61-8.61,8.61h-19.63c-4.76,0-8.61-3.86-8.61-8.61h0c0-4.76,3.86-8.61,8.61-8.61h19.63c4.76,0,8.61,3.86,8.61,8.61h0Z"/>
          <path class="cls-1" d="m1391.28,15.39c0,4.05-3.28,7.33-7.33,7.33h-16.71c-4.05,0-7.33-3.28-7.33-7.33h0c0-4.05,3.28-7.33,7.33-7.33h16.71c4.05,0,7.33,3.28,7.33,7.33h0Z"/>
          <path class="cls-3" d="m1345.9,11.36c0,6.27-5.09,11.36-11.36,11.36h-25.89c-6.27,0-11.36-5.09-11.36-11.36h0c0-6.27,5.09-11.36,11.36-11.36h25.89c6.27,0,11.36,5.09,11.36,11.36h0Z"/>
        </g>
      </g>
      <g>
        <g>
          <rect class="cls-4" x="355.4" y="43.67" width="355.4" height="48.99"/>
          <path class="cls-2" d="m393.7,59.7c0,3.58-2.9,6.48-6.48,6.48h-13.42c-3.58,0-6.48-2.9-6.48-6.48h0c0-3.58,2.9-6.48,6.48-6.48h13.42c3.58,0,6.48,2.9,6.48,6.48h0Z"/>
          <path class="cls-2" d="m496.28,57.84c0,3.58-2.9,6.48-6.48,6.48h-13.42c-3.58,0-6.48-2.9-6.48-6.48h0c0-3.58,2.9-6.48,6.48-6.48h13.42c3.58,0,6.48,2.9,6.48,6.48h0Z"/>
          <path class="cls-2" d="m522.67,76.74c0,3.58-2.9,6.48-6.48,6.48h-13.42c-3.58,0-6.48-2.9-6.48-6.48h0c0-3.58,2.9-6.49,6.48-4.63h13.42c3.58-1.86,6.48,1.05,6.48,4.63h0Z"/>
          <path class="cls-2" d="m649.23,76.74c0,3.58-2.9,6.48-6.48,6.48h-13.42c-3.58,0-6.48-2.9-6.48-6.48h0c0-3.58,2.9-6.49,6.48-6.49h13.42c3.58,0,6.48,2.9,6.48,6.49h0Z"/>
          <path class="cls-2" d="m424.35,78.6c0,3.58-2.9,6.48-6.48,6.48h-24.95c-3.58,0-6.48-2.9-6.48-6.48h0c0-3.58,2.9-6.49,6.48-6.49h24.95c3.58,0,6.48,2.9,6.48,6.49h0Z"/>
          <path class="cls-2" d="m695.87,57.84c0,3.58-2.9,6.48-6.48,6.48h-24.95c-3.58,0-6.48-2.9-6.48-6.48h0c0-3.58,2.9-6.48,6.48-6.48h24.95c3.58,0,6.48,2.9,6.48,6.48h0Z"/>
          <path class="cls-2" d="m581.11,64.32c0,3.58-2.9,6.48-6.48,6.48h-24.95c-3.58,0-6.48-2.9-6.48-6.48h0c0-3.58,2.9-6.49,6.48-6.49h24.95c3.58,0,6.48,2.9,6.48,6.49h0Z"/>
          <rect class="cls-1" x="355.4" y="31.59" width="355.4" height="12.08"/>
          <rect class="cls-4" x="355.4" y="21.43" width="355.4" height="12.08"/>
        </g>
        <g>
          <path class="cls-3" d="m471.72,12.8c0,5.48-4.44,9.92-9.92,9.92h-22.61c-5.48,0-9.92-4.44-9.92-9.92h0c0-5.48,4.44-9.92,9.92-9.92h22.61c5.48,0,9.92,4.44,9.92,9.92h0Z"/>
          <path class="cls-1" d="m582.31,14.11c0,4.76-3.86,8.61-8.61,8.61h-19.63c-4.76,0-8.61-3.86-8.61-8.61h0c0-4.76,3.86-8.61,8.61-8.61h19.63c4.76,0,8.61,3.86,8.61,8.61h0Z"/>
          <path class="cls-3" d="m638.91,11.36c0,6.27-5.09,11.36-11.36,11.36h-25.89c-6.27,0-11.36-5.09-11.36-11.36h0c0-6.27,5.09-11.36,11.36-11.36h25.89c6.27,0,11.36,5.09,11.36,11.36h0Z"/>
        </g>
      </g>
      <g>
        <g>
          <rect class="cls-4" y="43.67" width="355.4" height="48.99"/>
          <path class="cls-2" d="m38.3,59.7c0,3.58-2.9,6.48-6.48,6.48h-13.42c-3.58,0-6.48-2.9-6.48-6.48h0c0-3.58,2.9-6.48,6.48-6.48h13.42c3.58,0,6.48,2.9,6.48,6.48h0Z"/>
          <path class="cls-2" d="m140.88,57.84c0,3.58-2.9,6.48-6.48,6.48h-13.42c-3.58,0-6.48-2.9-6.48-6.48h0c0-3.58,2.9-6.48,6.48-6.48h13.42c3.58,0,6.48,2.9,6.48,6.48h0Z"/>
          <path class="cls-2" d="m167.27,76.74c0,3.58-2.9,6.48-6.48,6.48h-13.42c-3.58,0-6.48-2.9-6.48-6.48h0c0-3.58,2.9-6.49,6.48-4.63h13.42c3.58-1.86,6.48,1.05,6.48,4.63h0Z"/>
          <path class="cls-2" d="m293.83,76.74c0,3.58-2.9,6.48-6.48,6.48h-13.42c-3.58,0-6.48-2.9-6.48-6.48h0c0-3.58,2.9-6.49,6.48-6.49h13.42c3.58,0,6.48,2.9,6.48,6.49h0Z"/>
          <path class="cls-2" d="m68.95,78.6c0,3.58-2.9,6.48-6.48,6.48h-24.95c-3.58,0-6.48-2.9-6.48-6.48h0c0-3.58,2.9-6.49,6.48-6.49h24.95c3.58,0,6.48,2.9,6.48,6.49h0Z"/>
          <path class="cls-2" d="m340.47,57.84c0,3.58-2.9,6.48-6.48,6.48h-24.95c-3.58,0-6.48-2.9-6.48-6.48h0c0-3.58,2.9-6.48,6.48-6.48h24.95c3.58,0,6.48,2.9,6.48,6.48h0Z"/>
          <path class="cls-2" d="m225.71,64.32c0,3.58-2.9,6.48-6.48,6.48h-24.95c-3.58,0-6.48-2.9-6.48-6.48h0c0-3.58,2.9-6.49,6.48-6.49h24.95c3.58,0,6.48,2.9,6.48,6.49h0Z"/>
          <rect class="cls-1" y="31.59" width="355.4" height="12.08"/>
          <rect class="cls-4" y="21.43" width="355.4" height="12.08"/>
        </g>
        <g>
          <path class="cls-3" d="m116.32,12.8c0,5.48-4.44,9.92-9.92,9.92h-22.61c-5.48,0-9.92-4.44-9.92-9.92h0c0-5.48,4.44-9.92,9.92-9.92h22.61c5.48,0,9.92,4.44,9.92,9.92h0Z"/>
          <path class="cls-1" d="m226.91,14.11c0,4.76-3.86,8.61-8.61,8.61h-19.63c-4.76,0-8.61-3.86-8.61-8.61h0c0-4.76,3.86-8.61,8.61-8.61h19.63c4.76,0,8.61,3.86,8.61,8.61h0Z"/>
          <path class="cls-1" d="m328.89,15.39c0,4.05-3.28,7.33-7.33,7.33h-16.71c-4.05,0-7.33-3.28-7.33-7.33h0c0-4.05,3.28-7.33,7.33-7.33h16.71c4.05,0,7.33,3.28,7.33,7.33h0Z"/>
        </g>
      </g>
    </g>
  </g>
</svg>