<?xml version="1.0" encoding="UTF-8"?>
<svg id="Calque_2" data-name="Calque 2" xmlns="http://www.w3.org/2000/svg" viewBox="0 0 1920 92.66">
  <defs>
    <style>
      .cls-1 {
        fill: #a07138;
      }

      .cls-2 {
        fill: #b58a4d;
      }

      .cls-3 {
        fill: #ba8c5a;
      }

      .cls-4 {
        fill: #c1a36f;
      }
    </style>
  </defs>
  <g id="OBJECTS">
    <g>
      <g>
        <g>
          <rect class="cls-4" x="962.59" y="43.67" width="481.29" height="48.99"/>
          <path class="cls-2" d="m1014.45,59.7c0,3.58-3.93,6.48-8.78,6.48h-18.18c-4.85,0-8.78-2.9-8.78-6.48h0c0-3.58,3.93-6.48,8.78-6.48h18.18c4.85,0,8.78,2.9,8.78,6.48h0Z"/>
          <path class="cls-2" d="m1153.37,57.84c0,3.58-3.93,6.48-8.78,6.48h-18.18c-4.85,0-8.78-2.9-8.78-6.48h0c0-3.58,3.93-6.48,8.78-6.48h18.18c4.85,0,8.78,2.9,8.78,6.48h0Z"/>
          <path class="cls-2" d="m1189.1,76.74c0,3.58-3.93,6.48-8.78,6.48h-18.18c-4.85,0-8.78-2.9-8.78-6.48h0c0-3.58,3.93-6.49,8.78-4.63h18.18c4.85-1.86,8.78,1.05,8.78,4.63h0Z"/>
          <path class="cls-2" d="m1360.5,76.74c0,3.58-3.93,6.48-8.78,6.48h-18.18c-4.85,0-8.78-2.9-8.78-6.48h0c0-3.58,3.93-6.49,8.78-6.49h18.18c4.85,0,8.78,2.9,8.78,6.49h0Z"/>
          <path class="cls-2" d="m1055.96,78.6c0,3.58-3.93,6.48-8.78,6.48h-33.79c-4.85,0-8.78-2.9-8.78-6.48h0c0-3.58,3.93-6.49,8.78-6.49h33.79c4.85,0,8.78,2.9,8.78,6.49h0Z"/>
          <path class="cls-2" d="m1423.66,57.84c0,3.58-3.93,6.48-8.78,6.48h-33.79c-4.85,0-8.78-2.9-8.78-6.48h0c0-3.58,3.93-6.48,8.78-6.48h33.79c4.85,0,8.78,2.9,8.78,6.48h0Z"/>
          <path class="cls-2" d="m1268.25,64.32c0,3.58-3.93,6.48-8.78,6.48h-33.79c-4.85,0-8.78-2.9-8.78-6.48h0c0-3.58,3.93-6.49,8.78-6.49h33.79c4.85,0,8.78,2.9,8.78,6.49h0Z"/>
          <rect class="cls-1" x="962.59" y="31.59" width="481.29" height="12.08"/>
          <rect class="cls-4" x="962.59" y="21.43" width="481.29" height="12.08"/>
        </g>
        <g>
          <path class="cls-1" d="m1142.58,15.39c0,4.76-5.22,8.61-11.66,8.61h-26.58c-6.44,0-11.66-3.86-11.66-8.61h0c0-4.76,5.22-8.61,11.66-8.61h26.58c6.44,0,11.66,3.86,11.66,8.61h0Z"/>
          <path class="cls-1" d="m1407.98,15.39c0,4.05-4.45,7.33-9.93,7.33h-22.63c-5.48,0-9.93-3.28-9.93-7.33h0c0-4.05,4.45-7.33,9.93-7.33h22.63c5.48,0,9.93,3.28,9.93,7.33h0Z"/>
          <path class="cls-3" d="m1346.53,11.36c0,6.27-6.89,11.36-15.38,11.36h-35.06c-8.49,0-15.38-5.09-15.38-11.36h0c0-6.27,6.89-11.36,15.38-11.36h35.06c8.5,0,15.38,5.09,15.38,11.36h0Z"/>
        </g>
      </g>
      <g>
        <g>
          <rect class="cls-4" x="1432.54" y="43.67" width="487.46" height="48.99"/>
          <path class="cls-2" d="m1485.07,59.7c0,3.58-3.98,6.48-8.89,6.48h-18.41c-4.91,0-8.89-2.9-8.89-6.48h0c0-3.58,3.98-6.48,8.89-6.48h18.41c4.91,0,8.89,2.9,8.89,6.48h0Z"/>
          <path class="cls-2" d="m1625.77,57.84c0,3.58-3.98,6.48-8.89,6.48h-18.41c-4.91,0-8.89-2.9-8.89-6.48h0c0-3.58,3.98-6.48,8.89-6.48h18.41c4.91,0,8.89,2.9,8.89,6.48h0Z"/>
          <path class="cls-2" d="m1661.96,76.74c0,3.58-3.98,6.48-8.89,6.48h-18.41c-4.91,0-8.89-2.9-8.89-6.48h0c0-3.58,3.98-6.49,8.89-4.63h18.41c4.91-1.86,8.89,1.05,8.89,4.63h0Z"/>
          <path class="cls-2" d="m1835.56,76.74c0,3.58-3.98,6.48-8.89,6.48h-18.41c-4.91,0-8.89-2.9-8.89-6.48h0c0-3.58,3.98-6.49,8.89-6.49h18.41c4.91,0,8.89,2.9,8.89,6.49h0Z"/>
          <path class="cls-2" d="m1527.12,78.6c0,3.58-3.98,6.48-8.89,6.48h-34.22c-4.91,0-8.89-2.9-8.89-6.48h0c0-3.58,3.98-6.49,8.89-6.49h34.22c4.91,0,8.89,2.9,8.89,6.49h0Z"/>
          <path class="cls-2" d="m1899.52,57.84c0,3.58-3.98,6.48-8.89,6.48h-34.22c-4.91,0-8.89-2.9-8.89-6.48h0c0-3.58,3.98-6.48,8.89-6.48h34.22c4.91,0,8.89,2.9,8.89,6.48h0Z"/>
          <path class="cls-2" d="m1742.12,64.32c0,3.58-3.98,6.48-8.89,6.48h-34.22c-4.91,0-8.89-2.9-8.89-6.48h0c0-3.58,3.98-6.49,8.89-6.49h34.22c4.91,0,8.89,2.9,8.89,6.49h0Z"/>
          <rect class="cls-1" x="1432.54" y="31.59" width="487.46" height="12.08"/>
          <rect class="cls-4" x="1432.54" y="21.43" width="487.46" height="12.08"/>
        </g>
        <g>
          <path class="cls-1" d="m1743.77,14.11c0,4.76-5.29,8.61-11.81,8.61h-26.93c-6.52,0-11.81-3.86-11.81-8.61h0c0-4.76,5.29-8.61,11.81-8.61h26.93c6.52,0,11.81,3.86,11.81,8.61h0Z"/>
          <path class="cls-1" d="m1883.65,15.39c0,4.05-4.5,7.33-10.06,7.33h-22.92c-5.55,0-10.06-3.28-10.06-7.33h0c0-4.05,4.5-7.33,10.06-7.33h22.92c5.55,0,10.06,3.28,10.06,7.33h0Z"/>
          <path class="cls-3" d="m1821.4,11.36c0,6.27-6.98,11.36-15.58,11.36h-35.51c-8.6,0-15.58-5.09-15.58-11.36h0c0-6.27,6.98-11.36,15.58-11.36h35.51c8.6,0,15.58,5.09,15.58,11.36h0Z"/>
        </g>
      </g>
      <g>
        <g>
          <rect class="cls-4" x="474.74" y="43.67" width="494.52" height="48.99"/>
          <path class="cls-2" d="m528.03,59.7c0,3.58-4.04,6.48-9.02,6.48h-18.68c-4.98,0-9.02-2.9-9.02-6.48h0c0-3.58,4.04-6.48,9.02-6.48h18.68c4.98,0,9.02,2.9,9.02,6.48h0Z"/>
          <path class="cls-2" d="m670.76,57.84c0,3.58-4.04,6.48-9.02,6.48h-18.68c-4.98,0-9.02-2.9-9.02-6.48h0c0-3.58,4.04-6.48,9.02-6.48h18.68c4.98,0,9.02,2.9,9.02,6.48h0Z"/>
          <path class="cls-2" d="m707.48,76.74c0,3.58-4.04,6.48-9.02,6.48h-18.68c-4.98,0-9.02-2.9-9.02-6.48h0c0-3.58,4.04-6.49,9.02-4.63h18.68c4.98-1.86,9.02,1.05,9.02,4.63h0Z"/>
          <path class="cls-2" d="m883.59,76.74c0,3.58-4.04,6.48-9.02,6.48h-18.68c-4.98,0-9.02-2.9-9.02-6.48h0c0-3.58,4.04-6.49,9.02-6.49h18.68c4.98,0,9.02,2.9,9.02,6.49h0Z"/>
          <path class="cls-2" d="m570.68,78.6c0,3.58-4.04,6.48-9.02,6.48h-34.72c-4.98,0-9.02-2.9-9.02-6.48h0c0-3.58,4.04-6.49,9.02-6.49h34.72c4.98,0,9.02,2.9,9.02,6.49h0Z"/>
          <path class="cls-2" d="m948.48,57.84c0,3.58-4.04,6.48-9.02,6.48h-34.72c-4.98,0-9.02-2.9-9.02-6.48h0c0-3.58,4.04-6.48,9.02-6.48h34.72c4.98,0,9.02,2.9,9.02,6.48h0Z"/>
          <path class="cls-2" d="m788.8,64.32c0,3.58-4.04,6.48-9.02,6.48h-34.72c-4.98,0-9.02-2.9-9.02-6.48h0c0-3.58,4.04-6.49,9.02-6.49h34.72c4.98,0,9.02,2.9,9.02,6.49h0Z"/>
          <rect class="cls-1" x="474.74" y="31.59" width="494.52" height="12.08"/>
          <rect class="cls-4" x="474.74" y="21.43" width="494.52" height="12.08"/>
        </g>
        <g>
          <path class="cls-3" d="m636.59,12.8c0,5.48-6.18,9.92-13.8,9.92h-31.46c-7.62,0-13.8-4.44-13.8-9.92h0c0-5.48,6.18-9.92,13.8-9.92h31.46c7.62,0,13.8,4.44,13.8,9.92h0Z"/>
          <path class="cls-1" d="m790.47,14.11c0,4.76-5.37,8.61-11.98,8.61h-27.32c-6.62,0-11.98-3.86-11.98-8.61h0c0-4.76,5.37-8.61,11.98-8.61h27.32c6.62,0,11.98,3.86,11.98,8.61h0Z"/>
          <path class="cls-3" d="m869.23,11.36c0,6.27-7.08,11.36-15.81,11.36h-36.02c-8.73,0-15.8-5.09-15.8-11.36h0c0-6.27,7.08-11.36,15.8-11.36h36.02c8.73,0,15.81,5.09,15.81,11.36h0Z"/>
        </g>
      </g>
      <g>
        <g>
          <rect class="cls-4" y="43.67" width="481.29" height="48.99"/>
          <path class="cls-2" d="m51.86,59.7c0,3.58-3.93,6.48-8.78,6.48h-18.18c-4.85,0-8.78-2.9-8.78-6.48h0c0-3.58,3.93-6.48,8.78-6.48h18.18c4.85,0,8.78,2.9,8.78,6.48h0Z"/>
          <path class="cls-2" d="m190.78,57.84c0,3.58-3.93,6.48-8.78,6.48h-18.18c-4.85,0-8.78-2.9-8.78-6.48h0c0-3.58,3.93-6.48,8.78-6.48h18.18c4.85,0,8.78,2.9,8.78,6.48h0Z"/>
          <path class="cls-2" d="m226.52,76.74c0,3.58-3.93,6.48-8.78,6.48h-18.18c-4.85,0-8.78-2.9-8.78-6.48h0c0-3.58,3.93-6.49,8.78-4.63h18.18c4.85-1.86,8.78,1.05,8.78,4.63h0Z"/>
          <path class="cls-2" d="m397.92,76.74c0,3.58-3.93,6.48-8.78,6.48h-18.18c-4.85,0-8.78-2.9-8.78-6.48h0c0-3.58,3.93-6.49,8.78-6.49h18.18c4.85,0,8.78,2.9,8.78,6.49h0Z"/>
          <path class="cls-2" d="m93.38,78.6c0,3.58-3.93,6.48-8.78,6.48h-33.79c-4.85,0-8.78-2.9-8.78-6.48h0c0-3.58,3.93-6.49,8.78-6.49h33.79c4.85,0,8.78,2.9,8.78,6.49h0Z"/>
          <path class="cls-2" d="m461.07,57.84c0,3.58-3.93,6.48-8.78,6.48h-33.79c-4.85,0-8.78-2.9-8.78-6.48h0c0-3.58,3.93-6.48,8.78-6.48h33.79c4.85,0,8.78,2.9,8.78,6.48h0Z"/>
          <path class="cls-2" d="m305.66,64.32c0,3.58-3.93,6.48-8.78,6.48h-33.79c-4.85,0-8.78-2.9-8.78-6.48h0c0-3.58,3.93-6.49,8.78-6.49h33.79c4.85,0,8.78,2.9,8.78,6.49h0Z"/>
          <rect class="cls-1" y="31.59" width="481.29" height="12.08"/>
          <rect class="cls-4" y="21.43" width="481.29" height="12.08"/>
        </g>
        <g>
          <path class="cls-3" d="m157.52,12.8c0,5.48-6.01,9.92-13.43,9.92h-30.62c-7.42,0-13.43-4.44-13.43-9.92h0c0-5.48,6.01-9.92,13.43-9.92h30.62c7.42,0,13.43,4.44,13.43,9.92h0Z"/>
          <path class="cls-1" d="m307.29,14.11c0,4.76-5.22,8.61-11.66,8.61h-26.58c-6.44,0-11.66-3.86-11.66-8.61h0c0-4.76,5.22-8.61,11.66-8.61h26.58c6.44,0,11.66,3.86,11.66,8.61h0Z"/>
          <path class="cls-1" d="m445.4,15.39c0,4.05-4.45,7.33-9.93,7.33h-22.63c-5.48,0-9.93-3.28-9.93-7.33h0c0-4.05,4.45-7.33,9.93-7.33h22.63c5.48,0,9.93,3.28,9.93,7.33h0Z"/>
        </g>
      </g>
    </g>
  </g>
</svg>