<svg width="183" height="32" viewBox="0 0 183 32" fill="none" xmlns="http://www.w3.org/2000/svg">
  <g clip-path="url(#clip0_30_2)">
    <path style="mix-blend-mode:overlay"
      d="M91.19 31.46C141.553 31.46 182.38 24.4174 182.38 15.73C182.38 7.04256 141.553 0 91.19 0C40.8272 0 0 7.04256 0 15.73C0 24.4174 40.8272 31.46 91.19 31.46Z"
      fill="url(#paint0_radial_30_2)" />
    <g filter="url(#filter0_d_30_2)">
      <path
        d="M44.34 20.97C17.72 16.87 17.72 9.60005 44.34 5.50005C70.96 1.40005 114.26 1.40005 140.88 5.50005C167.5 9.60005 167.5 16.87 140.88 20.97C114.26 25.07 70.96 25.07 44.34 20.97ZM139.63 5.69005C113.7 1.70005 71.52 1.70005 45.59 5.69005C19.66 9.68005 19.66 16.18 45.59 20.17C71.52 24.16 113.7 24.16 139.63 20.17C165.56 16.18 165.56 9.68005 139.63 5.69005Z"
        fill="white" />
      <path
        d="M48.7101 19.1601C24.5101 15.5201 24.5101 9.20008 48.7101 5.56008C72.9101 1.92008 112.29 1.92008 136.49 5.56008C160.69 9.20008 160.69 15.5201 136.49 19.1601C112.29 22.8001 72.9101 22.8001 48.7101 19.1601ZM135.87 5.66008C112.01 2.07008 73.1901 2.07008 49.3401 5.66008C25.4801 9.25008 25.4801 15.0801 49.3401 18.6701C73.2001 22.2601 112.02 22.2601 135.87 18.6701C159.73 15.0801 159.73 9.25008 135.87 5.66008Z"
        fill="white" />
      <path
        d="M64.86 15.2501L56.72 16.3601C63.06 17.1801 70.54 17.7401 78.44 18.0401L81.42 16.5201C75.41 16.2901 69.72 15.8601 64.86 15.2501Z"
        fill="white" />
      <path
        d="M124.04 14.7201L132.2 15.8401C137.59 14.9901 141.28 14.0101 143.27 12.9801L132.16 12.5701C130.68 13.3401 127.97 14.0801 124.04 14.7301V14.7201Z"
        fill="white" />
      <path
        d="M120.35 7.01005L128.49 5.90005C122.67 5.15005 115.91 4.62005 108.74 4.30005L105.76 5.82005C111.04 6.06005 116.03 6.46005 120.36 7.01005H120.35Z"
        fill="white" />
      <path
        d="M132.87 12.1201L144.01 12.5301C145.52 11.4801 145.32 10.3901 143.39 9.3501L132.28 9.7601C133.69 10.5301 133.88 11.3401 132.87 12.1201Z"
        fill="white" />
      <path
        d="M53.2499 12.66L42.1399 13.07C44.3399 14.15 48.4199 15.18 54.3899 16.04L62.5299 14.93C58.0399 14.26 54.9499 13.49 53.2499 12.66Z"
        fill="white" />
      <path
        d="M131.36 9.33008L142.49 8.92008C140.18 7.94008 136.3 7.01008 130.83 6.21008L122.69 7.32008C126.69 7.91008 129.58 8.60008 131.36 9.32008V9.33008Z"
        fill="white" />
      <path
        d="M84.6199 16.62L81.6399 18.14C89.7699 18.38 98.2399 18.35 106.29 18.05L103.31 16.53C97.2099 16.75 90.7999 16.78 84.6099 16.62H84.6199Z"
        fill="white" />
      <path
        d="M63.66 7.16013C63.76 7.15013 63.85 7.13013 63.95 7.12013L55.82 6.01013C55.72 6.02013 55.63 6.04013 55.53 6.05013C49.65 6.86013 45.46 7.81013 42.96 8.82013L54.1 9.23013C56.07 8.48013 59.26 7.77013 63.66 7.16013Z"
        fill="white" />
      <path
        d="M53.11 9.66012L42 9.25012C39.84 10.3501 39.62 11.5101 41.35 12.6301L52.47 12.2201C51.25 11.3701 51.46 10.5001 53.1 9.66012H53.11Z"
        fill="white" />
      <path
        d="M102.59 5.69008L105.57 4.17008C97.9799 3.91008 90.0399 3.88008 82.3799 4.09008L85.3599 5.62008C91.0699 5.48008 96.9499 5.51008 102.59 5.70008V5.69008Z"
        fill="white" />
      <path
        d="M121.55 15.0901C117.15 15.6901 111.98 16.1301 106.47 16.4001L109.45 17.9301C116.85 17.5901 123.79 17.0101 129.68 16.2101C129.78 16.2001 129.87 16.1801 129.96 16.1701L121.83 15.0601C121.74 15.0701 121.64 15.0901 121.55 15.1001V15.0901Z"
        fill="white" />
      <path
        d="M82.14 5.71006L79.16 4.19006C71.62 4.46006 64.44 4.97006 58.24 5.71006L66.4 6.83006C71.11 6.29006 76.49 5.92006 82.14 5.72006V5.71006Z"
        fill="white" />
      <path
        d="M141.46 15.2001L145.29 15.5201C147.14 14.9901 148.58 14.4301 149.61 13.8601L145.34 13.6901C144.41 14.2001 143.12 14.7101 141.47 15.1901L141.46 15.2001Z"
        fill="white" />
      <path
        d="M40.0801 13.8L35.8101 13.97C36.9001 14.54 38.4001 15.1 40.3201 15.63L44.1701 15.31C42.4401 14.82 41.0801 14.32 40.0901 13.8H40.0801Z"
        fill="white" />
      <path
        d="M146.07 13.2301L150.35 13.4001C151.12 12.8501 151.52 12.3001 151.55 11.7401H147.13C147.1 12.2401 146.75 12.7401 146.07 13.2301Z"
        fill="white" />
      <path
        d="M133.73 16.8801L136.86 17.3401C139.5 16.9001 141.78 16.4401 143.71 15.9501L139.89 15.6301C138.15 16.0701 136.09 16.4901 133.73 16.8901V16.8801Z"
        fill="white" />
      <path
        d="M144.53 9.24006L148.8 9.07006C147.67 8.55006 146.19 8.04006 144.36 7.56006L140.52 7.88006C142.16 8.32006 143.5 8.77006 144.52 9.24006H144.53Z"
        fill="white" />
      <path
        d="M138.87 7.47015L142.71 7.15015C140.65 6.67015 138.23 6.21015 135.46 5.78015L132.33 6.23015C134.82 6.61015 137.01 7.03015 138.87 7.46015V7.47015Z"
        fill="white" />
      <path
        d="M147.06 11.2502H151.49C151.3 10.6702 150.7 10.1002 149.71 9.53015L145.44 9.70015C146.33 10.2102 146.87 10.7302 147.06 11.2502Z"
        fill="white" />
      <path
        d="M38.0801 11.6501H33.6601C33.6501 12.2701 34.1001 12.8901 35.0201 13.5001L39.3001 13.3301C38.4801 12.7701 38.0801 12.2101 38.0801 11.6401V11.6501Z"
        fill="white" />
      <path
        d="M95.4402 19.5801L95.4202 20.2201C99.6702 20.1901 103.89 20.1001 108.02 19.9301L106.88 19.3101C103.13 19.4601 99.3002 19.5401 95.4502 19.5701L95.4402 19.5801Z"
        fill="white" />
      <path
        d="M110.04 19.1802L111.19 19.8001C114.97 19.6201 118.65 19.3802 122.16 19.0902L119.97 18.5302C116.79 18.8002 113.47 19.0102 110.05 19.1802H110.04Z"
        fill="white" />
      <path
        d="M45.7702 15.7301L41.9302 16.0501C44.1102 16.5801 46.7202 17.0901 49.7602 17.5501L52.8902 17.1001C50.1302 16.6801 47.7602 16.2201 45.7802 15.7301H45.7702Z"
        fill="white" />
      <path
        d="M131.18 17.2701C128.56 17.6501 125.74 17.9801 122.76 18.2701L124.96 18.8301C128.27 18.5101 131.4 18.1501 134.31 17.7201C134.41 17.7001 134.52 17.6901 134.62 17.6701L131.49 17.2201C131.39 17.2401 131.29 17.2501 131.18 17.2701Z"
        fill="white" />
      <path
        d="M66.99 18.6702L64.76 19.2202C68.61 19.5202 72.64 19.7502 76.77 19.9202L77.91 19.3002C74.16 19.1502 70.49 18.9402 66.99 18.6702Z"
        fill="white" />
      <path
        d="M81.11 19.4102L79.96 20.0302C83.96 20.1602 88.04 20.2202 92.12 20.2302L92.14 19.5902C88.44 19.5902 84.74 19.5302 81.1 19.4102H81.11Z"
        fill="white" />
      <path
        d="M55.2201 17.4401L52.0901 17.8901C55.1401 18.3101 58.4301 18.6701 61.9001 18.9801L64.1301 18.4301C60.9901 18.1501 58.0001 17.8201 55.2201 17.4401Z"
        fill="white" />
      <path
        d="M78.6501 4.01014L77.5101 3.39014C73.7901 3.53014 70.1401 3.73014 66.6301 3.98014L68.8301 4.54014C72.0001 4.32014 75.3001 4.14014 78.6601 4.01014H78.6501Z"
        fill="white" />
      <path
        d="M106.14 3.99012L107.28 3.37012C103.58 3.23012 99.82 3.15012 96.03 3.12012L96.01 3.76012C99.42 3.79012 102.81 3.87012 106.14 3.99012Z"
        fill="white" />
      <path
        d="M65.8901 4.76007L63.7001 4.20007C60.1601 4.49007 56.7801 4.84007 53.6301 5.24007L56.7601 5.70007C59.6201 5.34007 62.6801 5.03007 65.8801 4.76007H65.8901Z"
        fill="white" />
      <path
        d="M54.0301 6.06007C54.1301 6.04007 54.2401 6.03007 54.3501 6.02007L51.2201 5.57007C51.1101 5.59007 51.0101 5.60007 50.9001 5.62007C48.1501 6.02007 45.7201 6.45007 43.6301 6.90007L47.4601 7.22007C49.3601 6.81007 51.5501 6.43007 54.0301 6.07007V6.06007Z"
        fill="white" />
      <path
        d="M119.16 4.74012L121.39 4.19012C117.88 3.91012 114.22 3.68012 110.45 3.50012L109.3 4.12012C112.69 4.28012 115.99 4.48012 119.15 4.74012H119.16Z"
        fill="white" />
      <path
        d="M92.71 3.75011L92.73 3.11011C88.7 3.11011 84.67 3.17011 80.71 3.28011L81.86 3.90011C85.44 3.80011 89.07 3.74011 92.71 3.75011Z"
        fill="white" />
      <path
        d="M130 5.90006L133.13 5.45006C130.34 5.07006 127.36 4.73006 124.23 4.44006L122 5.00006C124.81 5.26006 127.5 5.56006 130.01 5.91006L130 5.90006Z"
        fill="white" />
      <path
        d="M45.6901 7.62005L41.8701 7.30005C39.6901 7.83005 37.9501 8.39005 36.6401 8.97005L40.9201 9.14005C42.1301 8.62005 43.7101 8.11005 45.6901 7.63005V7.62005Z"
        fill="white" />
      <path
        d="M39.96 9.60005L35.69 9.43005C34.63 10.0001 33.99 10.5801 33.76 11.1701H38.19C38.42 10.6401 39.01 10.1101 39.97 9.60005H39.96Z"
        fill="white" />
    </g>
    <g filter="url(#filter1_d_30_2)">
      <path
        d="M44.34 20.97C17.72 16.87 17.72 9.60005 44.34 5.50005C70.96 1.40005 114.26 1.40005 140.88 5.50005C167.5 9.60005 167.5 16.87 140.88 20.97C114.26 25.07 70.96 25.07 44.34 20.97ZM139.63 5.69005C113.7 1.70005 71.52 1.70005 45.59 5.69005C19.66 9.68005 19.66 16.18 45.59 20.17C71.52 24.16 113.7 24.16 139.63 20.17C165.56 16.18 165.56 9.68005 139.63 5.69005Z"
        fill="white" />
      <path
        d="M48.7101 19.1601C24.5101 15.5201 24.5101 9.20008 48.7101 5.56008C72.9101 1.92008 112.29 1.92008 136.49 5.56008C160.69 9.20008 160.69 15.5201 136.49 19.1601C112.29 22.8001 72.9101 22.8001 48.7101 19.1601ZM135.87 5.66008C112.01 2.07008 73.1901 2.07008 49.3401 5.66008C25.4801 9.25008 25.4801 15.0801 49.3401 18.6701C73.2001 22.2601 112.02 22.2601 135.87 18.6701C159.73 15.0801 159.73 9.25008 135.87 5.66008Z"
        fill="white" />
      <path
        d="M64.86 15.2501L56.72 16.3601C63.06 17.1801 70.54 17.7401 78.44 18.0401L81.42 16.5201C75.41 16.2901 69.72 15.8601 64.86 15.2501Z"
        fill="white" />
      <path
        d="M124.04 14.7201L132.2 15.8401C137.59 14.9901 141.28 14.0101 143.27 12.9801L132.16 12.5701C130.68 13.3401 127.97 14.0801 124.04 14.7301V14.7201Z"
        fill="white" />
      <path
        d="M120.35 7.01005L128.49 5.90005C122.67 5.15005 115.91 4.62005 108.74 4.30005L105.76 5.82005C111.04 6.06005 116.03 6.46005 120.36 7.01005H120.35Z"
        fill="white" />
      <path
        d="M132.87 12.1201L144.01 12.5301C145.52 11.4801 145.32 10.3901 143.39 9.3501L132.28 9.7601C133.69 10.5301 133.88 11.3401 132.87 12.1201Z"
        fill="white" />
      <path
        d="M53.2499 12.66L42.1399 13.07C44.3399 14.15 48.4199 15.18 54.3899 16.04L62.5299 14.93C58.0399 14.26 54.9499 13.49 53.2499 12.66Z"
        fill="white" />
      <path
        d="M131.36 9.33008L142.49 8.92008C140.18 7.94008 136.3 7.01008 130.83 6.21008L122.69 7.32008C126.69 7.91008 129.58 8.60008 131.36 9.32008V9.33008Z"
        fill="white" />
      <path
        d="M84.6199 16.62L81.6399 18.14C89.7699 18.38 98.2399 18.35 106.29 18.05L103.31 16.53C97.2099 16.75 90.7999 16.78 84.6099 16.62H84.6199Z"
        fill="white" />
      <path
        d="M63.66 7.16013C63.76 7.15013 63.85 7.13013 63.95 7.12013L55.82 6.01013C55.72 6.02013 55.63 6.04013 55.53 6.05013C49.65 6.86013 45.46 7.81013 42.96 8.82013L54.1 9.23013C56.07 8.48013 59.26 7.77013 63.66 7.16013Z"
        fill="white" />
      <path
        d="M53.11 9.66012L42 9.25012C39.84 10.3501 39.62 11.5101 41.35 12.6301L52.47 12.2201C51.25 11.3701 51.46 10.5001 53.1 9.66012H53.11Z"
        fill="white" />
      <path
        d="M102.59 5.69008L105.57 4.17008C97.9799 3.91008 90.0399 3.88008 82.3799 4.09008L85.3599 5.62008C91.0699 5.48008 96.9499 5.51008 102.59 5.70008V5.69008Z"
        fill="white" />
      <path
        d="M121.55 15.0901C117.15 15.6901 111.98 16.1301 106.47 16.4001L109.45 17.9301C116.85 17.5901 123.79 17.0101 129.68 16.2101C129.78 16.2001 129.87 16.1801 129.96 16.1701L121.83 15.0601C121.74 15.0701 121.64 15.0901 121.55 15.1001V15.0901Z"
        fill="white" />
      <path
        d="M82.14 5.71006L79.16 4.19006C71.62 4.46006 64.44 4.97006 58.24 5.71006L66.4 6.83006C71.11 6.29006 76.49 5.92006 82.14 5.72006V5.71006Z"
        fill="white" />
      <path
        d="M141.46 15.2001L145.29 15.5201C147.14 14.9901 148.58 14.4301 149.61 13.8601L145.34 13.6901C144.41 14.2001 143.12 14.7101 141.47 15.1901L141.46 15.2001Z"
        fill="white" />
      <path
        d="M40.0801 13.8L35.8101 13.97C36.9001 14.54 38.4001 15.1 40.3201 15.63L44.1701 15.31C42.4401 14.82 41.0801 14.32 40.0901 13.8H40.0801Z"
        fill="white" />
      <path
        d="M146.07 13.2301L150.35 13.4001C151.12 12.8501 151.52 12.3001 151.55 11.7401H147.13C147.1 12.2401 146.75 12.7401 146.07 13.2301Z"
        fill="white" />
      <path
        d="M133.73 16.8801L136.86 17.3401C139.5 16.9001 141.78 16.4401 143.71 15.9501L139.89 15.6301C138.15 16.0701 136.09 16.4901 133.73 16.8901V16.8801Z"
        fill="white" />
      <path
        d="M144.53 9.24006L148.8 9.07006C147.67 8.55006 146.19 8.04006 144.36 7.56006L140.52 7.88006C142.16 8.32006 143.5 8.77006 144.52 9.24006H144.53Z"
        fill="white" />
      <path
        d="M138.87 7.47015L142.71 7.15015C140.65 6.67015 138.23 6.21015 135.46 5.78015L132.33 6.23015C134.82 6.61015 137.01 7.03015 138.87 7.46015V7.47015Z"
        fill="white" />
      <path
        d="M147.06 11.2502H151.49C151.3 10.6702 150.7 10.1002 149.71 9.53015L145.44 9.70015C146.33 10.2102 146.87 10.7302 147.06 11.2502Z"
        fill="white" />
      <path
        d="M38.0801 11.6501H33.6601C33.6501 12.2701 34.1001 12.8901 35.0201 13.5001L39.3001 13.3301C38.4801 12.7701 38.0801 12.2101 38.0801 11.6401V11.6501Z"
        fill="white" />
      <path
        d="M95.4402 19.5801L95.4202 20.2201C99.6702 20.1901 103.89 20.1001 108.02 19.9301L106.88 19.3101C103.13 19.4601 99.3002 19.5401 95.4502 19.5701L95.4402 19.5801Z"
        fill="white" />
      <path
        d="M110.04 19.1802L111.19 19.8001C114.97 19.6201 118.65 19.3802 122.16 19.0902L119.97 18.5302C116.79 18.8002 113.47 19.0102 110.05 19.1802H110.04Z"
        fill="white" />
      <path
        d="M45.7702 15.7301L41.9302 16.0501C44.1102 16.5801 46.7202 17.0901 49.7602 17.5501L52.8902 17.1001C50.1302 16.6801 47.7602 16.2201 45.7802 15.7301H45.7702Z"
        fill="white" />
      <path
        d="M131.18 17.2701C128.56 17.6501 125.74 17.9801 122.76 18.2701L124.96 18.8301C128.27 18.5101 131.4 18.1501 134.31 17.7201C134.41 17.7001 134.52 17.6901 134.62 17.6701L131.49 17.2201C131.39 17.2401 131.29 17.2501 131.18 17.2701Z"
        fill="white" />
      <path
        d="M66.99 18.6702L64.76 19.2202C68.61 19.5202 72.64 19.7502 76.77 19.9202L77.91 19.3002C74.16 19.1502 70.49 18.9402 66.99 18.6702Z"
        fill="white" />
      <path
        d="M81.11 19.4102L79.96 20.0302C83.96 20.1602 88.04 20.2202 92.12 20.2302L92.14 19.5902C88.44 19.5902 84.74 19.5302 81.1 19.4102H81.11Z"
        fill="white" />
      <path
        d="M55.2201 17.4401L52.0901 17.8901C55.1401 18.3101 58.4301 18.6701 61.9001 18.9801L64.1301 18.4301C60.9901 18.1501 58.0001 17.8201 55.2201 17.4401Z"
        fill="white" />
      <path
        d="M78.6501 4.01014L77.5101 3.39014C73.7901 3.53014 70.1401 3.73014 66.6301 3.98014L68.8301 4.54014C72.0001 4.32014 75.3001 4.14014 78.6601 4.01014H78.6501Z"
        fill="white" />
      <path
        d="M106.14 3.99012L107.28 3.37012C103.58 3.23012 99.82 3.15012 96.03 3.12012L96.01 3.76012C99.42 3.79012 102.81 3.87012 106.14 3.99012Z"
        fill="white" />
      <path
        d="M65.8901 4.76007L63.7001 4.20007C60.1601 4.49007 56.7801 4.84007 53.6301 5.24007L56.7601 5.70007C59.6201 5.34007 62.6801 5.03007 65.8801 4.76007H65.8901Z"
        fill="white" />
      <path
        d="M54.0301 6.06007C54.1301 6.04007 54.2401 6.03007 54.3501 6.02007L51.2201 5.57007C51.1101 5.59007 51.0101 5.60007 50.9001 5.62007C48.1501 6.02007 45.7201 6.45007 43.6301 6.90007L47.4601 7.22007C49.3601 6.81007 51.5501 6.43007 54.0301 6.07007V6.06007Z"
        fill="white" />
      <path
        d="M119.16 4.74012L121.39 4.19012C117.88 3.91012 114.22 3.68012 110.45 3.50012L109.3 4.12012C112.69 4.28012 115.99 4.48012 119.15 4.74012H119.16Z"
        fill="white" />
      <path
        d="M92.71 3.75011L92.73 3.11011C88.7 3.11011 84.67 3.17011 80.71 3.28011L81.86 3.90011C85.44 3.80011 89.07 3.74011 92.71 3.75011Z"
        fill="white" />
      <path
        d="M130 5.90006L133.13 5.45006C130.34 5.07006 127.36 4.73006 124.23 4.44006L122 5.00006C124.81 5.26006 127.5 5.56006 130.01 5.91006L130 5.90006Z"
        fill="white" />
      <path
        d="M45.6901 7.62005L41.8701 7.30005C39.6901 7.83005 37.9501 8.39005 36.6401 8.97005L40.9201 9.14005C42.1301 8.62005 43.7101 8.11005 45.6901 7.63005V7.62005Z"
        fill="white" />
      <path
        d="M39.96 9.60005L35.69 9.43005C34.63 10.0001 33.99 10.5801 33.76 11.1701H38.19C38.42 10.6401 39.01 10.1101 39.97 9.60005H39.96Z"
        fill="white" />
    </g>
    <path
      d="M44.34 20.97C17.72 16.87 17.72 9.60005 44.34 5.50005C70.96 1.40005 114.26 1.40005 140.88 5.50005C167.5 9.60005 167.5 16.87 140.88 20.97C114.26 25.07 70.96 25.07 44.34 20.97ZM139.63 5.69005C113.7 1.70005 71.52 1.70005 45.59 5.69005C19.66 9.68005 19.66 16.18 45.59 20.17C71.52 24.16 113.7 24.16 139.63 20.17C165.56 16.18 165.56 9.68005 139.63 5.69005Z"
      fill="#CAF3FF" />
    <path
      d="M48.7101 19.1601C24.5101 15.5201 24.5101 9.20008 48.7101 5.56008C72.9101 1.92008 112.29 1.92008 136.49 5.56008C160.69 9.20008 160.69 15.5201 136.49 19.1601C112.29 22.8001 72.9101 22.8001 48.7101 19.1601ZM135.87 5.66008C112.01 2.07008 73.1901 2.07008 49.3401 5.66008C25.4801 9.25008 25.4801 15.0801 49.3401 18.6701C73.2001 22.2601 112.02 22.2601 135.87 18.6701C159.73 15.0801 159.73 9.25008 135.87 5.66008Z"
      fill="#F3FDFF" />
    <path
      d="M64.86 15.2501L56.72 16.3601C63.06 17.1801 70.54 17.7401 78.44 18.0401L81.42 16.5201C75.41 16.2901 69.72 15.8601 64.86 15.2501Z"
      fill="#A4EEFF" />
    <path
      d="M124.04 14.7201L132.2 15.8401C137.59 14.9901 141.28 14.0101 143.27 12.9801L132.16 12.5701C130.68 13.3401 127.97 14.0801 124.04 14.7301V14.7201Z"
      fill="#A4EEFF" />
    <path
      d="M120.35 7.01005L128.49 5.90005C122.67 5.15005 115.91 4.62005 108.74 4.30005L105.76 5.82005C111.04 6.06005 116.03 6.46005 120.36 7.01005H120.35Z"
      fill="#A4EEFF" />
    <path
      d="M132.87 12.1201L144.01 12.5301C145.52 11.4801 145.32 10.3901 143.39 9.3501L132.28 9.7601C133.69 10.5301 133.88 11.3401 132.87 12.1201Z"
      fill="#A4EEFF" />
    <path
      d="M53.2499 12.66L42.1399 13.07C44.3399 14.15 48.4199 15.18 54.3899 16.04L62.5299 14.93C58.0399 14.26 54.9499 13.49 53.2499 12.66Z"
      fill="#A4EEFF" />
    <path
      d="M131.36 9.33008L142.49 8.92008C140.18 7.94008 136.3 7.01008 130.83 6.21008L122.69 7.32008C126.69 7.91008 129.58 8.60008 131.36 9.32008V9.33008Z"
      fill="#A4EEFF" />
    <path
      d="M84.6199 16.62L81.6399 18.14C89.7699 18.38 98.2399 18.35 106.29 18.05L103.31 16.53C97.2099 16.75 90.7999 16.78 84.6099 16.62H84.6199Z"
      fill="#A4EEFF" />
    <path
      d="M63.66 7.16013C63.76 7.15013 63.85 7.13013 63.95 7.12013L55.82 6.01013C55.72 6.02013 55.63 6.04013 55.53 6.05013C49.65 6.86013 45.46 7.81013 42.96 8.82013L54.1 9.23013C56.07 8.48013 59.26 7.77013 63.66 7.16013Z"
      fill="#A4EEFF" />
    <path
      d="M53.11 9.66012L42 9.25012C39.84 10.3501 39.62 11.5101 41.35 12.6301L52.47 12.2201C51.25 11.3701 51.46 10.5001 53.1 9.66012H53.11Z"
      fill="#A4EEFF" />
    <path
      d="M102.59 5.69008L105.57 4.17008C97.9799 3.91008 90.0399 3.88008 82.3799 4.09008L85.3599 5.62008C91.0699 5.48008 96.9499 5.51008 102.59 5.70008V5.69008Z"
      fill="#A4EEFF" />
    <path
      d="M121.55 15.0901C117.15 15.6901 111.98 16.1301 106.47 16.4001L109.45 17.9301C116.85 17.5901 123.79 17.0101 129.68 16.2101C129.78 16.2001 129.87 16.1801 129.96 16.1701L121.83 15.0601C121.74 15.0701 121.64 15.0901 121.55 15.1001V15.0901Z"
      fill="#A4EEFF" />
    <path
      d="M82.14 5.71006L79.16 4.19006C71.62 4.46006 64.44 4.97006 58.24 5.71006L66.4 6.83006C71.11 6.29006 76.49 5.92006 82.14 5.72006V5.71006Z"
      fill="#A4EEFF" />
    <path
      d="M141.46 15.2001L145.29 15.5201C147.14 14.9901 148.58 14.4301 149.61 13.8601L145.34 13.6901C144.41 14.2001 143.12 14.7101 141.47 15.1901L141.46 15.2001Z"
      fill="#53DAF9" />
    <path
      d="M40.0801 13.8L35.8101 13.97C36.9001 14.54 38.4001 15.1 40.3201 15.63L44.1701 15.31C42.4401 14.82 41.0801 14.32 40.0901 13.8H40.0801Z"
      fill="#53DAF9" />
    <path
      d="M146.07 13.2301L150.35 13.4001C151.12 12.8501 151.52 12.3001 151.55 11.7401H147.13C147.1 12.2401 146.75 12.7401 146.07 13.2301Z"
      fill="#53DAF9" />
    <path
      d="M133.73 16.8801L136.86 17.3401C139.5 16.9001 141.78 16.4401 143.71 15.9501L139.89 15.6301C138.15 16.0701 136.09 16.4901 133.73 16.8901V16.8801Z"
      fill="#53DAF9" />
    <path
      d="M144.53 9.24006L148.8 9.07006C147.67 8.55006 146.19 8.04006 144.36 7.56006L140.52 7.88006C142.16 8.32006 143.5 8.77006 144.52 9.24006H144.53Z"
      fill="#53DAF9" />
    <path
      d="M138.87 7.47015L142.71 7.15015C140.65 6.67015 138.23 6.21015 135.46 5.78015L132.33 6.23015C134.82 6.61015 137.01 7.03015 138.87 7.46015V7.47015Z"
      fill="#53DAF9" />
    <path
      d="M147.06 11.2502H151.49C151.3 10.6702 150.7 10.1002 149.71 9.53015L145.44 9.70015C146.33 10.2102 146.87 10.7302 147.06 11.2502Z"
      fill="#53DAF9" />
    <path
      d="M38.0801 11.6501H33.6601C33.6501 12.2701 34.1001 12.8901 35.0201 13.5001L39.3001 13.3301C38.4801 12.7701 38.0801 12.2101 38.0801 11.6401V11.6501Z"
      fill="#53DAF9" />
    <path
      d="M95.4402 19.5801L95.4202 20.2201C99.6702 20.1901 103.89 20.1001 108.02 19.9301L106.88 19.3101C103.13 19.4601 99.3002 19.5401 95.4502 19.5701L95.4402 19.5801Z"
      fill="#53DAF9" />
    <path
      d="M110.04 19.1802L111.19 19.8001C114.97 19.6201 118.65 19.3802 122.16 19.0902L119.97 18.5302C116.79 18.8002 113.47 19.0102 110.05 19.1802H110.04Z"
      fill="#53DAF9" />
    <path
      d="M45.7702 15.7301L41.9302 16.0501C44.1102 16.5801 46.7202 17.0901 49.7602 17.5501L52.8902 17.1001C50.1302 16.6801 47.7602 16.2201 45.7802 15.7301H45.7702Z"
      fill="#53DAF9" />
    <path
      d="M131.18 17.2701C128.56 17.6501 125.74 17.9801 122.76 18.2701L124.96 18.8301C128.27 18.5101 131.4 18.1501 134.31 17.7201C134.41 17.7001 134.52 17.6901 134.62 17.6701L131.49 17.2201C131.39 17.2401 131.29 17.2501 131.18 17.2701Z"
      fill="#53DAF9" />
    <path
      d="M66.99 18.6702L64.76 19.2202C68.61 19.5202 72.64 19.7502 76.77 19.9202L77.91 19.3002C74.16 19.1502 70.49 18.9402 66.99 18.6702Z"
      fill="#53DAF9" />
    <path
      d="M81.11 19.4102L79.96 20.0302C83.96 20.1602 88.04 20.2202 92.12 20.2302L92.14 19.5902C88.44 19.5902 84.74 19.5302 81.1 19.4102H81.11Z"
      fill="#53DAF9" />
    <path
      d="M55.2201 17.4401L52.0901 17.8901C55.1401 18.3101 58.4301 18.6701 61.9001 18.9801L64.1301 18.4301C60.9901 18.1501 58.0001 17.8201 55.2201 17.4401Z"
      fill="#53DAF9" />
    <path
      d="M78.6501 4.01014L77.5101 3.39014C73.7901 3.53014 70.1401 3.73014 66.6301 3.98014L68.8301 4.54014C72.0001 4.32014 75.3001 4.14014 78.6601 4.01014H78.6501Z"
      fill="#53DAF9" />
    <path
      d="M106.14 3.99012L107.28 3.37012C103.58 3.23012 99.82 3.15012 96.03 3.12012L96.01 3.76012C99.42 3.79012 102.81 3.87012 106.14 3.99012Z"
      fill="#53DAF9" />
    <path
      d="M65.8901 4.76007L63.7001 4.20007C60.1601 4.49007 56.7801 4.84007 53.6301 5.24007L56.7601 5.70007C59.6201 5.34007 62.6801 5.03007 65.8801 4.76007H65.8901Z"
      fill="#53DAF9" />
    <path
      d="M54.0301 6.06007C54.1301 6.04007 54.2401 6.03007 54.3501 6.02007L51.2201 5.57007C51.1101 5.59007 51.0101 5.60007 50.9001 5.62007C48.1501 6.02007 45.7201 6.45007 43.6301 6.90007L47.4601 7.22007C49.3601 6.81007 51.5501 6.43007 54.0301 6.07007V6.06007Z"
      fill="#53DAF9" />
    <path
      d="M119.16 4.74012L121.39 4.19012C117.88 3.91012 114.22 3.68012 110.45 3.50012L109.3 4.12012C112.69 4.28012 115.99 4.48012 119.15 4.74012H119.16Z"
      fill="#53DAF9" />
    <path
      d="M92.71 3.75011L92.73 3.11011C88.7 3.11011 84.67 3.17011 80.71 3.28011L81.86 3.90011C85.44 3.80011 89.07 3.74011 92.71 3.75011Z"
      fill="#53DAF9" />
    <path
      d="M130 5.90006L133.13 5.45006C130.34 5.07006 127.36 4.73006 124.23 4.44006L122 5.00006C124.81 5.26006 127.5 5.56006 130.01 5.91006L130 5.90006Z"
      fill="#53DAF9" />
    <path
      d="M45.6901 7.62005L41.8701 7.30005C39.6901 7.83005 37.9501 8.39005 36.6401 8.97005L40.9201 9.14005C42.1301 8.62005 43.7101 8.11005 45.6901 7.63005V7.62005Z"
      fill="#53DAF9" />
    <path
      d="M39.96 9.60005L35.69 9.43005C34.63 10.0001 33.99 10.5801 33.76 11.1701H38.19C38.42 10.6401 39.01 10.1101 39.97 9.60005H39.96Z"
      fill="#53DAF9" />
  </g>
  <defs>
    <filter id="filter0_d_30_2" x="22.755" y="0.805049" width="139.71" height="24.86"
      filterUnits="userSpaceOnUse" color-interpolation-filters="sRGB">
      <feFlood flood-opacity="0" result="BackgroundImageFix" />
      <feColorMatrix in="SourceAlpha" type="matrix"
        values="0 0 0 0 0 0 0 0 0 0 0 0 0 0 0 0 0 0 127 0" result="hardAlpha" />
      <feOffset />
      <feGaussianBlur stdDeviation="0.81" />
      <feColorMatrix type="matrix" values="0 0 0 0 0.282353 0 0 0 0 0.796078 0 0 0 0 1 0 0 0 0.75 0" />
      <feBlend mode="normal" in2="BackgroundImageFix" result="effect1_dropShadow_30_2" />
      <feBlend mode="normal" in="SourceGraphic" in2="effect1_dropShadow_30_2" result="shape" />
    </filter>
    <filter id="filter1_d_30_2" x="22.755" y="0.805049" width="139.71" height="24.86"
      filterUnits="userSpaceOnUse" color-interpolation-filters="sRGB">
      <feFlood flood-opacity="0" result="BackgroundImageFix" />
      <feColorMatrix in="SourceAlpha" type="matrix"
        values="0 0 0 0 0 0 0 0 0 0 0 0 0 0 0 0 0 0 127 0" result="hardAlpha" />
      <feOffset />
      <feGaussianBlur stdDeviation="0.81" />
      <feColorMatrix type="matrix" values="0 0 0 0 0.282353 0 0 0 0 0.796078 0 0 0 0 1 0 0 0 0.75 0" />
      <feBlend mode="normal" in2="BackgroundImageFix" result="effect1_dropShadow_30_2" />
      <feBlend mode="normal" in="SourceGraphic" in2="effect1_dropShadow_30_2" result="shape" />
    </filter>
    <radialGradient id="paint0_radial_30_2" cx="0" cy="0" r="1" gradientUnits="userSpaceOnUse"
      gradientTransform="translate(91.384 16.2692) scale(90.1398 15.0233)">
      <stop stop-color="#00FFF8" />
      <stop offset="0.37" stop-color="#00FFF8" stop-opacity="0.58" />
      <stop offset="0.68" stop-color="#00FFF8" stop-opacity="0.27" />
      <stop offset="0.89" stop-color="#00FFF8" stop-opacity="0.08" />
      <stop offset="1" stop-color="#00FFF8" stop-opacity="0" />
    </radialGradient>
    <clipPath id="clip0_30_2">
      <rect width="182.38" height="31.47" fill="white" />
    </clipPath>
  </defs>
</svg>